<svg xmlns="http://www.w3.org/2000/svg" viewBox="0 0 1698.49 1959.55"><defs><style>.cls-1{fill:#2b6db1;}.cls-2{fill:#ca502f;}.cls-3{fill:#eba83e;}.cls-4{fill:#010101;}.cls-5{fill:#fff;}.cls-6{fill:#e9933a;}.cls-7{fill:#c67a34;}</style></defs><g id="Calque_2" data-name="Calque 2"><g id="Calque_1-2" data-name="Calque 1"><path class="cls-1" d="M1698.49,1110.31c0,237-97.62,451.7-254.76,605.89q-12.46,12.27-25.44,24v0q-7.08,6.39-14.27,12.63t-14.55,12.29q-14.7,12.14-29.92,23.64c-2.55,1.92-5.09,3.82-7.66,5.7-5.11,3.75-10.29,7.49-15.48,11.14l0,0q-11.72,8.23-23.71,16.07t-24.26,15.27c-2.74,1.67-5.47,3.32-8.25,5q-20.6,12.18-41.92,23.2a0,0,0,0,1,0,0q-8.55,4.41-17.15,8.64l0,0q-21.6,10.54-43.86,19.91-4.46,1.88-9,3.71-17.9,7.26-36.2,13.75-9.16,3.25-18.4,6.29-31.25,10.26-63.5,18.11c-1.53.39-3.07.75-4.59,1.1-4.93,1.19-9.85,2.32-14.82,3.38q-6.82,1.52-13.71,2.88c-4.8,1-9.64,1.9-14.48,2.78-2,.37-4,.73-5.95,1.06-5,.9-10.05,1.74-15.1,2.53l-3,.48q-12.93,2-26,3.57a855.8,855.8,0,0,1-103.23,6.24c-236.25,0-450.26-97-604.36-253.2-3.38-3.42-6.74-6.89-10.08-10.37q-10-10.49-19.61-21.29c-3.22-3.61-6.39-7.22-9.54-10.89A852.53,852.53,0,0,1,89.16,1488.94v0q-13-26-24.26-53A844.35,844.35,0,0,1,0,1110.31c0-293.07,149.22-552,375.68-704.63-5.5-30.84-6.32-63.7,1.28-99,.75-3.36,1.56-7.24,2.61-11.49,6.34-26.53,19.88-68.13,59-97.39,33.76-25.16,69.32-28.38,84.51-29.73,45.22-4.05,85,8.7,116.27,25.12,2.63,1.38,5.23,2.8,7.74,4.24-.48-1.88-.94-3.76-1.36-5.66-.83-3.67-1.54-7.37-2.13-11.06-3.11-19.24-9.49-59.2,13.21-102.56,6-11.43,29.17-50.27,76.67-68.84C766.16-3.45,794-.28,818.62,2.52c67.88,7.74,115.17,40.11,133,52.29,14.54,10,52,38.29,85.86,85.81a363.28,363.28,0,0,1,25.27,41c6.12-14,20.12-38.31,48.18-54,28.51-16,63.63-18,98.85-5.85,45.51,15.7,68.44,52.69,83.61,77.21,24.1,38.94,30.11,74.43,33.37,93.5.46,2.65.85,5.3,1.23,8a296.29,296.29,0,0,1,2.9,41.52l.29-.19c14.32-8.76,30.17-11.37,44.47-11.18a130.39,130.39,0,0,1,44.49,8.89c31.07,13.1,54.48,40.69,69.94,82.3q9.42,25.32,14.92,57.53c.52,3,6.59,40.87-1.33,90.26C1625.31,716.6,1698.49,905.07,1698.49,1110.31Z"/><path d="M1660.39,886.16C1644.9,845,1621.64,810,1591.19,782c-40.36-37.13-95.53-64.65-150.11-75.86,39-44.25,55.86-94.54,62.58-136.51,7.92-49.39,1.85-87.3,1.33-90.26q-5.48-32.19-14.92-57.53c-15.46-41.61-38.87-69.2-69.94-82.3a130.39,130.39,0,0,0-44.49-8.89c-14.3-.19-30.15,2.42-44.47,11.18l-.29.19a296.29,296.29,0,0,0-2.9-41.52c-.38-2.7-.77-5.35-1.23-8-3.26-19.07-9.27-54.56-33.37-93.5-15.17-24.52-38.1-61.51-83.61-77.21-35.22-12.18-70.34-10.12-98.85,5.85-28.06,15.65-42.06,40-48.18,54a363.28,363.28,0,0,0-25.27-41c-33.82-47.52-71.32-75.86-85.86-85.81-17.82-12.18-65.11-44.55-133-52.29-24.58-2.8-52.46-6-85.13,6.8C686,27.89,662.81,66.73,656.82,78.16c-22.7,43.36-16.32,83.32-13.21,102.56.59,3.69,1.3,7.39,2.13,11.06.42,1.9.88,3.78,1.36,5.66-2.51-1.44-5.11-2.86-7.74-4.24-31.24-16.42-71.05-29.17-116.27-25.12-15.19,1.35-50.75,4.57-84.51,29.73-39.13,29.26-52.67,70.86-59,97.39-1.05,4.25-1.86,8.13-2.61,11.49-7.6,35.29-6.78,68.15-1.28,99,7.54,42.49,23.88,81.16,39.05,117a709.49,709.49,0,0,0,86.63,150C459.15,704,427.89,733,408.42,751c-24.85,23.06-112,108.76-189.44,243.14-47.37,82.25-86.62,178.14-113.52,277.25-12.31,45.39-27.52,101.46-40.56,164.52q11.23,27,24.26,53c.34-1.84.67-3.65,1-5.47q.38-2.13.78-4.26c.31-1.65.62-3.29.91-4.94.26-1.34.51-2.69.76-4,.14-.75.29-1.5.43-2.25.07-.4.15-.8.21-1.19l1.44-7.39c2.9-14.88,6-29.36,9.1-43.44.67-3,1.34-5.87,2-8.77.21-.94.42-1.87.65-2.81q1.78-7.8,3.59-15.43l.69-2.85c.71-3,1.44-6.06,2.17-9,.1-.48.23-1,.33-1.44.5-1.94,1-3.9,1.44-5.84.13-.5.25-1,.36-1.44l3.58-14.34c.13-.48.26-1,.36-1.44.08-.29.15-.58.23-.87.52-2.07,1.06-4.11,1.59-6.14s1-4.11,1.56-6.13c.19-.67.35-1.34.52-2,.15-.48.25-1,.38-1.44.44-1.67.87-3.34,1.31-5s.86-3.3,1.3-5c1-3.82,2-7.59,3-11.29.83-3.09,1.65-6.13,2.46-9.16.54-2,1.09-4,1.63-6s1-3.94,1.59-5.88c.62-2.28,1.21-4.55,1.83-6.78s1.21-4.45,1.8-6.64c.2-.81.43-1.61.66-2.42.59-2.21,1.21-4.4,1.82-6.59.75-2.63,1.48-5.28,2.23-7.91,1.19-4.13,2.38-8.24,3.63-12.36.9-3,1.84-6,2.76-9.07.21-.67.41-1.34.62-2,.42-1.44.88-2.9,1.34-4.34.71-2.25,1.42-4.48,2.13-6.74.62-2,1.27-3.92,1.9-5.86.68-2.09,1.37-4.17,2-6.26s1.4-4.17,2.09-6.26l1.56-4.59,0,0c.65-2,1.32-3.9,2-5.86q1.22-3.48,2.44-7c.48-1.38,1-2.72,1.46-4.07.77-2.17,1.54-4.34,2.34-6.49s1.52-4.18,2.29-6.24c.65-1.79,1.32-3.59,2-5.36.78-2,1.55-4.09,2.32-6.14s1.48-3.82,2.23-5.74c.09-.23.17-.46.27-.69.21-.58.42-1.14.65-1.71.67-1.69,1.32-3.38,2-5l2-5c.81-2,1.6-4,2.42-6,1.12-2.8,2.27-5.53,3.42-8.29.38-.91.75-1.83,1.15-2.75.31-.75.62-1.5,1-2.25s.62-1.49.94-2.24.64-1.54,1-2.31.66-1.55,1-2.32l2-4.63c.29-.69.59-1.36.88-2,.08-.18.19-.39.27-.6l.25-.63c.48-1.1,1-2.21,1.48-3.31s1-2.24,1.48-3.32c2.47-5.53,5-11,7.49-16.45l0,0a.08.08,0,0,1,0-.06q1.88-4,3.81-8.07,3.86-8.12,7.83-16.11c2.65-5.3,5.32-10.58,8-15.8,1.3-2.5,2.61-5,3.9-7.45.73-1.36,1.46-2.73,2.2-4.09,1.25-2.34,2.5-4.69,3.77-7,.13-.25.29-.5.42-.75l.12-.25c.28-.5.55-1,.84-1.48s.52-1,.81-1.48c.53-1,1.07-2,1.61-2.95.21-.39.44-.77.65-1.14.69-1.22,1.35-2.45,2-3.66.11-.18.21-.37.31-.56,1.07-1.9,2.13-3.78,3.22-5.63l1.06-1.88v0l3.53-6c1.19-2,2.38-4,3.55-6,.73-1.26,1.48-2.49,2.21-3.74,2.81-4.67,5.61-9.28,8.45-13.83,1.17-1.92,2.36-3.82,3.57-5.72q5.1-8.14,10.22-16,2.91-4.48,5.84-8.87c.8-1.17,1.57-2.34,2.36-3.51,1.55-2.31,3.11-4.63,4.68-6.88,1.1-1.61,2.19-3.2,3.29-4.78a9.91,9.91,0,0,1,.61-.88c.23-.38.5-.75.75-1.13.48-.66.94-1.33,1.38-2,.31-.46.62-.92,1-1.36a0,0,0,0,0,0,0c.31-.46.62-.89.92-1.33.85-1.21,1.69-2.4,2.52-3.61,2.34-3.28,4.63-6.51,6.95-9.7l1-1.38,2.46-3.36,2.34-3.21q.92-1.26,1.86-2.49c.48-.67,1-1.31,1.44-2l2-2.67q3-4,6-7.89c1.5-2,3-3.9,4.46-5.8,1.26-1.63,2.51-3.21,3.74-4.8q2.91-3.72,5.8-7.34c1.92-2.42,3.82-4.78,5.72-7.12,1.27-1.54,2.52-3.11,3.77-4.61l3.7-4.51c1.86-2.23,3.67-4.4,5.49-6.55s3.58-4.24,5.36-6.32c.27-.34.56-.65.83-1,.52-.61,1.05-1.19,1.55-1.8,2-2.29,3.94-4.55,5.88-6.74.94-1.1,1.9-2.19,2.88-3.25.23-.27.46-.55.69-.8.71-.81,1.42-1.58,2.11-2.37.21-.25.41-.48.64-.71s.42-.5.65-.73.38-.42.56-.65c.61-.69,1.24-1.38,1.84-2.05.9-1,1.8-2,2.69-2.94l2.69-3c1.78-2,3.55-3.84,5.26-5.68l5-5.34c.61-.65,1.23-1.29,1.84-1.92l3-3.11c.77-.81,1.54-1.58,2.3-2.38l2.23-2.29,4.28-4.34,2-2.05c.65-.66,1.29-1.31,1.94-1.94l1.9-1.88h0c.63-.62,1.21-1.23,1.82-1.79s1.16-1.15,1.73-1.69c.29-.29.56-.56.83-.81s.55-.53.84-.8l.52-.52c.9-.85,1.75-1.67,2.54-2.46,1-.92,1.9-1.8,2.78-2.61s1.67-1.56,2.42-2.25,1.34-1.23,2-1.86l.94-.88c.21-.18.4-.37.63-.58l1.61-1.48c.54-.5,1.08-1,1.64-1.53,2.78-2.56,5.78-5.32,9-8.2,1.69-1.54,3.44-3.13,5.23-4.73,6.3-5.66,13.25-11.79,20.85-18.26,2.17-1.86,4.38-3.74,6.68-5.64s4.59-3.83,6.94-5.78,4.83-3.94,7.31-5.92c.79-.65,1.58-1.3,2.4-1.92.44-.36.9-.71,1.33-1.07l1.48-1.18c.78-.63,1.57-1.26,2.36-1.86,1.3-1,2.59-2,3.9-3.07.59-.46,1.17-.9,1.76-1.33,2.06-1.63,4.15-3.24,6.28-4.85h0c1.36-1,2.75-2.08,4.13-3.11s2.8-2.08,4.22-3.13q4.25-3.15,8.64-6.32c1.46-1.06,2.94-2.11,4.42-3.17l4.11-2.88c.12-.08.25-.19.38-.27a2,2,0,0,1,.37-.25c.52-.38,1-.73,1.54-1.09.21-.16.44-.31.65-.48,1.09-.73,2.15-1.48,3.26-2.21a4.27,4.27,0,0,1,.54-.37c.19-.15.38-.28.56-.4l3.3-2.25c.54-.38,1.08-.76,1.65-1.11l1.67-1.11.6-.41c.32-.21.63-.4.92-.61.13-.08.23-.17.36-.25a.2.2,0,0,1,.1-.08c.35-.25.73-.48,1.06-.71h0c.11-.06.21-.15.32-.21l2.06-1.36a2,2,0,0,1,.28-.16c.14-.11.29-.19.41-.27a2.26,2.26,0,0,1,.34-.23,6.58,6.58,0,0,1,.54-.38c1.08-.73,2.19-1.44,3.3-2.15.48-.31,1-.63,1.44-.92.7-.48,1.41-.94,2.14-1.4,1.95-1.23,3.87-2.46,5.81-3.67l.31-.21.17-.08,2.29-1.44c.77-.5,1.55-1,2.3-1.44l.23-.15.23-.12c.41-.27.81-.52,1.23-.77.25-.17.52-.32.77-.48s.31-.19.46-.27a1.34,1.34,0,0,1,.27-.17c1.79-1.11,3.61-2.19,5.4-3.28s3.4-2,5.12-3c1-.59,1.94-1.17,2.94-1.73.46-.28.92-.55,1.38-.8.77-.46,1.56-.92,2.33-1.35a.62.62,0,0,1,.19-.11l.13-.06c.68-.42,1.37-.81,2.08-1.21l3.26-1.86q2.43-1.38,4.88-2.73a4.51,4.51,0,0,1,.52-.29c.69-.38,1.38-.78,2.09-1.15l2.08-1.13a1.48,1.48,0,0,0,.13-.08l.06,0c1-.53,2-1.11,3-1.63s1.86-1,2.8-1.5c1.77-1,3.54-1.9,5.34-2.86l1.6-.82.3-.16h0a1.14,1.14,0,0,1,.29-.15c.35-.19.69-.38,1-.54s.69-.38,1-.55a.42.42,0,0,0,.12-.08.4.4,0,0,0,.13-.06c.18-.08.35-.19.52-.27.58-.29,1.12-.59,1.71-.88l1.81-.92c.9-.46,1.8-.92,2.72-1.37s1.58-.82,2.42-1.21l.37-.19c1.8-.92,3.61-1.8,5.41-2.67h0c1.77-.88,3.55-1.74,5.32-2.57.77-.37,1.54-.75,2.32-1.11s1.54-.73,2.31-1.08l4.26-2c1.92-.9,3.84-1.78,5.78-2.65,1.48-.65,2.94-1.32,4.42-2,.48-.23.94-.44,1.42-.63s1.09-.48,1.65-.73,1.09-.48,1.63-.71c.77-.36,1.54-.67,2.31-1l.13-.06a1.76,1.76,0,0,1,.35-.15c.25-.13.53-.23.78-.33,1.06-.46,2.1-.9,3.17-1.34l1.56-.67,0,0c.53-.21,1.05-.44,1.57-.64l.6-.26.76-.31,2.19-.9c.43-.18.87-.37,1.31-.54l2.23-.9,0,0c1.63-.66,3.24-1.31,4.87-1.94l2.25-.87c.33-.15.67-.28,1-.4.52-.21,1-.42,1.55-.6s.73-.3,1.1-.42a4.83,4.83,0,0,0,.52-.23,3.29,3.29,0,0,1,.55-.21c.18-.06.37-.15.56-.21l1.86-.69.52-.21.54-.18q1.64-.66,3.3-1.26c.21-.1.44-.16.67-.25.73-.27,1.41-.54,2.12-.79.34-.1.65-.25,1-.33.88-.34,1.76-.67,2.63-1s1.73-.63,2.61-.92l.5-.19c.17-.06.34-.13.5-.17.67-.25,1.38-.5,2-.73l2.06-.71,2.07-.73,2.06-.69.15-.06c.69-.25,1.36-.48,2-.71l.37-.12c.17,0,.31-.11.46-.15.5-.19,1-.35,1.54-.52.32-.11.63-.21.92-.29l0,0a.33.33,0,0,1,.15-.05c.42-.16.88-.31,1.29-.43a1,1,0,0,1,.28-.09l1.27-.42a1.21,1.21,0,0,1,.25-.08c1-.35,2-.67,3.07-1,.52-.19,1-.35,1.56-.5,2.15-.69,4.26-1.36,6.41-2,2.31-.73,4.65-1.44,7-2.13,1.35-.4,2.71-.82,4.07-1.19l4.34-1.23,1.54-.44.9-.27c.85-.23,1.75-.5,2.71-.75l.38-.11a.37.37,0,0,0,.14,0c.59-.17,1.19-.33,1.78-.48l.93-.25.94-.25,4-1.11.4-.1c.52-.15,1-.27,1.54-.4l1.61-.41c.25-.07.54-.15.81-.21a7.58,7.58,0,0,1,.82-.21c.56-.15,1.12-.29,1.69-.42.23-.06.46-.14.69-.19s.45-.12.68-.16a1.08,1.08,0,0,1,.19,0l.17,0,.46-.12,2.29-.57c.27,0,.57-.12.86-.18l1.52-.38.77-.19.8-.16.31-.09.08,0,.3-.06,2-.44c.64-.17,1.31-.31,2-.46l2-.46c.68-.16,1.39-.31,2.1-.46,1.26-.29,2.51-.54,3.8-.81l1.38-.29c.46-.09.92-.19,1.38-.27l2.27-.46,2.32-.44c.77-.17,1.56-.31,2.35-.46l2.4-.46,2.42-.44,2.49-.43c1.67-.3,3.36-.59,5.09-.88,1.19-.21,2.38-.4,3.59-.56l2-.32,1.69-.25,2.38-.37c.33,0,.67-.11,1-.15,7.18-1,14.75-2,22.72-2.82l2.28-.23c.37,0,.77-.08,1.15-.1s.92-.11,1.4-.15c.22,0,.48,0,.73-.08s.62,0,.93-.06c2.74-.25,5.51-.5,8.35-.71.38,0,.75-.06,1.13-.09l3.23-.23c3.24-.23,6.53-.41,9.87-.58l3.36-.17,3.72-.16c1,0,2-.07,3-.09h.23c2.5-.08,5-.14,7.57-.21l1.38,0h1.38c1.19,0,2.36,0,3.55,0h3.56c3.41,0,6.87,0,10.33.08.9,0,1.8,0,2.69.07l2.65.08,1.86,0c2.92.09,5.89.21,8.87.36l5.49.29q5.48.32,11.08.75c1.06.08,2.15.17,3.21.27l.69.07.69.06c.6,0,1.21.08,1.81.14a7.56,7.56,0,0,1,.86.09l2.73.25a1.1,1.1,0,0,1,.27,0c.84.1,1.65.16,2.47.27,2.77.29,5.55.58,8.28.9s5.16.62,7.68,1c2,.27,4.07.56,6.07.85s4,.59,6,.9a2,2,0,0,1,.34,0c2,.34,4,.65,6,1q2.68.45,5.36.94c1.17.21,2.34.44,3.53.67a5.56,5.56,0,0,1,.77.12l.75.15,2,.38,2.19.43,2.19.44.11,0c1.81.38,3.65.78,5.46,1.15s3.68.79,5.51,1.21c1,.21,2,.44,3,.69.71.15,1.41.31,2.12.5s1.36.31,2,.48l3.52.86h0c1.81.46,3.61.91,5.4,1.39l1.52.4a.71.71,0,0,1,.21,0l.21.06.84.24,1,.24c.35.09.66.17,1,.28l.21.06s0,0,.08,0c.52.15,1,.27,1.57.42s1,.27,1.52.41l.23.07c.79.23,1.58.44,2.36.64l1,.32.5.12a2,2,0,0,1,.44.13,3.88,3.88,0,0,1,.45.14c1.76.5,3.51,1,5.24,1.53h0l1.4.41,1.4.44c.52.15,1,.29,1.54.46s.94.27,1.4.44l1.38.44c.65.19,1.29.39,1.94.6.83.27,1.69.52,2.52.8l.5.16c.67.21,1.36.46,2,.67l3.44,1.13.38.12a1.09,1.09,0,0,1,.37.13c.5.16,1,.31,1.53.5l.91.31q7.42,2.51,14.55,5.16l4.69,1.75c2.09.77,4.13,1.56,6.18,2.34l.9.35c.14.06.27.1.41.17a1.52,1.52,0,0,1,.36.12c1.35.52,2.69,1.05,4,1.59,1.67.67,3.31,1.31,4.94,2l1.09.44h0l2.4,1c.89.35,1.77.71,2.65,1.08h0c.39.17.81.32,1.21.5l7,3,2.46,1.06a.42.42,0,0,1,.15,0,.36.36,0,0,1,.19.09.84.84,0,0,1,.2.08l.21.11c.38.14.73.29,1.11.45h0l1.69.73c.56.23,1.11.48,1.67.73a4,4,0,0,0,.54.21l.52.23c.36.15.71.32,1.07.46l3,1.32.3.12a2.29,2.29,0,0,0,.27.13q2.28,1,4.5,2l2.51,1.08c.83.36,1.67.71,2.5,1.09s1.65.71,2.46,1.08l2.47,1.07,2.94,1.33c.24.11.51.23.78.33s.37.16.55.26a1.39,1.39,0,0,1,.26.1c.54.23,1.06.48,1.58.71l.81.36c.42.18.84.37,1.26.58s.83.4,1.25.58c.27.13.54.26.83.38s.57.27.86.4h0c.56.27,1.15.52,1.73.81s1.19.54,1.78.83l1.81.86h0l1.84.9c.17.08.33.14.48.23l1.19.56,1.23.58c1.21.59,2.46,1.19,3.73,1.82s2.55,1.25,3.86,1.9c.86.44,1.76.88,2.65,1.31l2.68,1.38a3.27,3.27,0,0,1,.31.17c.21.08.42.21.62.31l1.36.69s0,0,0,0l1.38.73.92.46c.31.15.62.31.91.48l1.28.65c.19.1.39.2.6.33s.44.21.65.33q3.95,2.07,8,4.26l1.38.73c3.11,1.69,6.28,3.44,9.56,5.24l.62.35.63.36,4.19,2.36h0c.64.35,1.31.73,2,1.12,1.08.61,2.17,1.21,3.27,1.86.38.21.75.44,1.13.67a1.27,1.27,0,0,1,.23.12l.42.25c.48.25,1,.55,1.46.84,1.67,1,3.36,1.94,5,3l.69.42c.6.33,1.19.69,1.79,1.06l3.4,2c.52.29,1,.6,1.55.93l.5.3c1,.56,1.9,1.14,2.86,1.73l.81.5,2.09,1.29,2.52,1.55q3.72,2.28,7.51,4.69l2.84,1.82c.31.21.63.4,1,.6s.65.4,1,.61l1.36.87,1.64,1.07,1.65,1.08q3.33,2.13,6.7,4.39a3.58,3.58,0,0,0,.46.29c.48.33,1,.67,1.46,1s1,.65,1.46,1l3.4,2.27c.4.26.78.53,1.15.78l2.28,1.54,3.44,2.36c.08,0,.14.1.23.15.54.37,1.08.77,1.63,1.14s1.06.73,1.6,1.13l.8.54c.27.17.54.36.79.55a.76.76,0,0,1,.21.14.35.35,0,0,1,.1.08,1.18,1.18,0,0,0,.15.11c.48.31,1,.67,1.44,1h0c.46.31.94.65,1.42,1l1.23.86c.29.21.56.42.85.62a4.61,4.61,0,0,1,.38.28l.4.29c.39.25.77.52,1.16.81l0,0c.18.15.39.29.58.42s.4.29.58.44c0,0,.05,0,.07,0a.55.55,0,0,1,.21.15l.06.06,0,0h0l0,0h0s.07,0,.11.08v0l.27.17a1.54,1.54,0,0,0,.29.21l0,0a.44.44,0,0,1,.17.12l0,0,0,0,.33.21.27.18.28.21.31.25,0,0,0,0a2,2,0,0,0,.23.17c.29.19.59.4.88.63,1.25.89,2.5,1.81,3.78,2.75.18.13.37.27.58.44s.38.27.58.42a3.48,3.48,0,0,1,.59.44.27.27,0,0,1,.12.1l0,0c.25.19.52.38.77.59-.23.08-.44.16-.65.22a1.25,1.25,0,0,0-.29.11,1,1,0,0,0-.27.1l-1.13.38s0,0,0,0a.07.07,0,0,1-.06,0s0,0,0,0l-.08,0,0,0c-.17.05-.31.09-.46.15l-.48.19a4,4,0,0,0-.52.16l-.63.25a3.53,3.53,0,0,0-.39.15c-.36.13-.71.25-1.07.4-.14,0-.29.1-.44.16l-.94.36-.93.35c-.32.13-.61.23-.9.36l-1.15.48-.15.06-1,.4c-.12,0-.23.12-.37.16l-.57.25c-.73.3-1.44.61-2.19.94a.82.82,0,0,0-.23.11,2,2,0,0,1-.23.08s-.06,0-.06,0,0,0-.06,0l-.5.21,0,0-.28.13c-.25.1-.5.23-.75.33l-1.5.71c-1,.48-2.07,1-3.09,1.48s-2.06,1-3.07,1.55c-2,1-4,2.15-6,3.27-.87.5-1.77,1-2.62,1.55-.23.14-.48.27-.71.42l-.53.31a5.69,5.69,0,0,1-.52.33.31.31,0,0,0-.12.09.15.15,0,0,0-.09,0c-.39.23-.81.5-1.21.75s-.81.52-1.21.77a.51.51,0,0,0-.16.11l-.15.1a2.1,2.1,0,0,0-.31.19l-.11.06-1.25.81-.73.51-.06,0a5.35,5.35,0,0,0-.67.46,2.22,2.22,0,0,0-.44.29l-.23.14-.21.15a1.31,1.31,0,0,0-.16.13,1.32,1.32,0,0,0-.25.16,1.38,1.38,0,0,0-.25.17,0,0,0,0,0,0,0,1.73,1.73,0,0,0-.21.17l-1,.66c-.32.21-.65.44-1,.67s-.65.46-.94.69-.63.46-.94.69-.42.29-.61.44l-.52.35v0l0,0s0,0,0,0l-.31.24c-.13.09-.21.17-.32.26l-1.21.91h0l-1.42,1.13c-.18.13-.35.27-.52.42a1.42,1.42,0,0,0-.21.17,8.28,8.28,0,0,0-.89.7,3.48,3.48,0,0,0-.3.26c-.35.27-.69.56-1,.85s-.73.61-1.11.92c-1.08.92-2.17,1.86-3.23,2.82-.48.41-1,.85-1.42,1.29-.73.65-1.46,1.31-2.15,2-.5.46-1,1-1.5,1.44-1,1-2,2-3,3l-.23.23-1.14,1.19c-.21.22-.44.48-.69.7l-.13.15a1,1,0,0,1-.14.17,3.92,3.92,0,0,0-.4.42c-.23.22-.44.45-.67.68v0c-.4.44-.81.88-1.21,1.34l-.44.46c-.27.29-.52.58-.79.9a6.05,6.05,0,0,0-.52.6c-.4.44-.79.86-1.17,1.32a5.72,5.72,0,0,0-.4.46l-.75.87c-.12.15-.25.29-.35.44a3.62,3.62,0,0,0-.36.42c-.25.27-.46.54-.73.85-.69.84-1.35,1.67-2,2.53-.55.69-1.11,1.37-1.63,2.08-.19.23-.38.46-.54.69l-.59.77a1.82,1.82,0,0,0-.14.19c-.23.34-.48.65-.73,1-.38.53-.75,1-1.13,1.53l-.23.31-1.17,1.65c-.23.31-.44.62-.67.94a10.66,10.66,0,0,1-.6.89c-.23.3-.44.61-.65.92-.1.15-.19.29-.27.44a.65.65,0,0,0-.1.15,3.26,3.26,0,0,0-.38.56,3.51,3.51,0,0,0-.27.4c-.17.25-.36.5-.52.77-.5.75-1,1.5-1.48,2.27-.17.3-.38.59-.55.88-.5.81-1,1.63-1.5,2.42s-.79,1.31-1.19,2c-.19.29-.35.59-.52.88s-.35.6-.52.9-.25.43-.38.66-.29.5-.44.76a2.34,2.34,0,0,1-.14.27c0,.06-.08.14-.13.21a.67.67,0,0,1-.06.12,0,0,0,0,1,0,0l-.56,1c-.36.61-.69,1.23-1,1.86-.52,1-1,2-1.54,3-.1.19-.21.38-.29.57-.27.54-.57,1.06-.82,1.6-.14.27-.29.52-.41.8,0,0,0,0,0,0s0,0,0,0c-.2.42-.39.81-.58,1.23s-.27.56-.42.84-.21.48-.33.7-.08.19-.13.28a9.53,9.53,0,0,0-.45,1,2,2,0,0,0-.17.37c-.15.25-.25.52-.38.79l-.06.15,0,.08c-.06.13-.13.25-.19.4-.19.4-.38.79-.54,1.19s-.36.79-.54,1.19a5.15,5.15,0,0,0-.21.52,3.71,3.71,0,0,0-.23.5c-.27.67-.55,1.3-.84,1.94a1.25,1.25,0,0,1-.1.27c0,.09-.09.17-.13.27s0,.07,0,.09c-.16.42-.33.81-.5,1.21s-.25.58-.35.87-.13.3-.19.44c-.17.38-.31.75-.44,1.13l-.63,1.59c-.2.54-.41,1.08-.62,1.6s-.29.82-.44,1.21c-.21.55-.42,1.09-.6,1.63,0,0,0,0,0,.06a.88.88,0,0,1-.06.17l-.06.15c-.19.54-.38,1.08-.56,1.62l-.57,1.63c-.12.36-.25.73-.37,1.11,0,.12-.09.25-.13.39s-.1.27-.14.4c-.15.46-.32.92-.46,1.38l-.23.73c-.27.85-.52,1.73-.8,2.59s-.58,1.94-.85,2.9c-.13.41-.25.81-.36,1.21a.07.07,0,0,1,0,.06l-.06.21a.18.18,0,0,1,0,.1,1.49,1.49,0,0,1-.06.25v0h0v0a.08.08,0,0,0-.07.05l0,0,0,0-.52.44-1.61,1.44,0,0c-.73.66-1.46,1.31-2.21,2-.52.46-1,.92-1.52,1.42-.13.1-.25.21-.36.31s-.21.23-.33.34c-.73.68-1.46,1.37-2.19,2.08l-1.59,1.57c-.54.52-1.06,1-1.61,1.56a.52.52,0,0,0-.08.11l-.1.1c-.61.61-1.19,1.19-1.78,1.8-.44.43-.87.87-1.29,1.31v0l-2.78,2.9-3.5,3.78-2,2.25c-.69.77-1.37,1.55-2,2.32s-1.36,1.52-2,2.29-1.33,1.55-2,2.32c0,0,0,0,0,.06h0l-1.94,2.32-1.94,2.31c-1.3,1.57-2.61,3.16-3.88,4.72s-2.57,3.15-3.82,4.74c-.65.79-1.28,1.58-1.88,2.38s-1.23,1.58-1.86,2.38-1.25,1.58-1.85,2.37l-1.84,2.36-3,3.94-2.19,2.91-1.56,2.06c-.38.5-.77,1-1.15,1.53l-2.36,3.13-3.88,5.15v0c-.23.29-.44.61-.67.9-.85,1.17-1.71,2.31-2.56,3.48l-3.22,4.4-.41.61c-1.09,1.54-2.15,3.07-3.24,4.59-.17.25-.31.46-.48.69-.85,1.25-1.69,2.46-2.52,3.69-.17.27-.36.5-.53.77-1,1.47-2,2.93-2.92,4.39s-2.06,3.15-3.06,4.71c-.32.46-.61.92-.9,1.38-.48.79-1,1.54-1.46,2.32-.23.35-.44.68-.65,1-.65,1-1.29,2.06-1.92,3.09-.54.85-1.06,1.71-1.56,2.56s-1,1.71-1.55,2.55c-.06.08-.12.19-.17.27-.64,1.09-1.29,2.17-1.94,3.26-.46.77-.91,1.56-1.37,2.33v0a3.81,3.81,0,0,0-.23.4l-.25.4-.52.89c-.3.5-.57,1-.84,1.49s-.56,1-.83,1.48c-.46.79-.9,1.54-1.34,2.33s-.88,1.57-1.31,2.34v0l-1.28,2.32c-.43.77-.85,1.54-1.27,2.31s-.81,1.55-1.23,2.32-.84,1.57-1.23,2.32v0a.48.48,0,0,0-.09.14c-.39.8-.81,1.55-1.21,2.32s-.75,1.44-1.12,2.15c-1.38,2.71-2.76,5.42-4.07,8.12-.67,1.35-1.32,2.69-2,4s-1.3,2.7-1.92,4c-.15.33-.3.67-.46,1-.06.15-.15.32-.21.46-.44,1-.88,1.88-1.29,2.82s-.76,1.63-1.13,2.44c-1,2.13-1.9,4.26-2.82,6.36-.25.57-.5,1.15-.77,1.72-.06.16-.13.35-.21.52-.71,1.62-1.38,3.25-2.06,4.86l-.82,2c-.33.82-.67,1.61-1,2.4v0c-.58,1.46-1.19,2.92-1.77,4.38v0l-1.07,2.69c-.23.54-.44,1.1-.64,1.67-.28.73-.57,1.46-.84,2.17s-.56,1.46-.81,2.17-.57,1.46-.84,2.17-.54,1.42-.79,2.15c-1.06,2.83-2.07,5.67-3,8.49s-1.92,5.59-2.84,8.35c-.45,1.39-.91,2.77-1.35,4.11s-.86,2.67-1.27,4c-.21.65-.42,1.32-.63,2s-.42,1.31-.61,2c-.5,1.67-1,3.29-1.48,4.92s-1,3.26-1.42,4.86c-.2.71-.41,1.44-.62,2.15v.07c0,.1-.06.22-.11.33s0,.19-.06.27l-.12.4v.06c-.28.92-.53,1.84-.78,2.75-.16.63-.33,1.28-.52,1.9s-.33,1.25-.5,1.9c-.69,2.53-1.33,5-1.94,7.41s-1.23,4.84-1.79,7.2c-.27,1.19-.55,2.36-.84,3.52-.12.53-.25,1.07-.37,1.59-.19.81-.38,1.65-.57,2.48-.52,2.28-1,4.55-1.5,6.76-.19.88-.38,1.74-.56,2.61v0a0,0,0,0,0,0,0,5.55,5.55,0,0,0-.15.73c-.15.63-.27,1.26-.4,1.86-.08.42-.16.79-.25,1.21-.37,1.9-.75,3.74-1.12,5.55-.4,2-.78,4-1.15,5.93s-.69,3.8-1,5.61c-.35,2-.68,3.92-1,5.78-.06.36-.12.69-.16,1s-.13.68-.19,1-.15.85-.21,1.27-.15.81-.21,1.21l-.06.42c-.25,1.48-.5,2.88-.73,4.26s-.5,2.94-.73,4.34c-.11.73-.23,1.44-.36,2.17-.21,1.31-.44,2.69-.66,4.09,0,.12-.05.27-.09.43a1.77,1.77,0,0,1,0,.3,2.09,2.09,0,0,0,0,.35c0,.1,0,.23-.06.36s-.09.5-.13.7a1,1,0,0,0,0,.23c0,.32-.08.63-.15.94-.23,1.42-.46,2.84-.69,4.32-.12.84-.25,1.67-.39,2.53-.07.41-.13.83-.19,1.27s-.13.86-.19,1.29a.47.47,0,0,0,0,.17c0,.15-.06.31-.08.48a2.4,2.4,0,0,1-.09.48c-.06.5-.14,1-.2,1.5-.13.9-.28,1.78-.4,2.7a1.17,1.17,0,0,1,0,.27c0,.06,0,.14,0,.21v0a2.11,2.11,0,0,0,0,.35c-.1.63-.18,1.27-.29,1.9,0,.17,0,.31-.06.5a.62.62,0,0,1,0,.19v0c-.21,1.63-.44,3.28-.65,5-.14,1-.27,1.94-.37,2.89s-.25,2-.38,3-.23,2-.33,3-.23,2-.34,3.07c0,.42-.1.84-.14,1.27s-.09.86-.13,1.3c-.08.71-.17,1.42-.23,2.15s-.14,1.58-.23,2.4-.16,1.6-.23,2.42v0c-.08.92-.16,1.86-.23,2.77,0,.17,0,.32,0,.48a3.73,3.73,0,0,0,0,.46c-.06.73-.1,1.44-.17,2.17s-.12,1.59-.18,2.4a1.89,1.89,0,0,1,0,.4c0,.85-.12,1.73-.18,2.61-.09,1.15-.15,2.31-.21,3.48l-.06,1c0,.74-.09,1.44-.13,2.18-.08,1.66-.17,3.35-.23,5.09v.1c0,.65,0,1.32-.08,2,0,.86-.07,1.71-.11,2.59v.08c0,.48,0,1,0,1.44s0,.73,0,1.09,0,.71,0,1.08l-.06,3.24v.06c0,.75,0,1.48,0,2.21,0,.5,0,1,0,1.5,0,.94,0,1.88,0,2.84,0,1.48,0,3,0,4.49,0,.83,0,1.67,0,2.52v2c0,.43,0,.85,0,1.27,0,.86,0,1.69,0,2.55s0,1.77.08,2.65c0,.39,0,.79,0,1.18q.1,2.93.23,5.87c.09,2,.21,4,.32,5.95.16,3,.39,6,.62,9.09.13,1.53.25,3.07.4,4.64s.27,3.1.44,4.67c.1,1.11.23,2.21.33,3.32.06.44.11.89.15,1.33s.06.59.1.9a1.65,1.65,0,0,1,0,.31c0,.15,0,.3,0,.46.32,2.65.65,5.32,1,8q.32,2.42.66,4.89c.3,2,.59,4.17.92,6.4.09.57.17,1.11.25,1.69s.17,1.15.25,1.72.17,1.14.27,1.73.17,1.19.28,1.79c0,.29.08.59.14.9s.08.6.13.9c.08.45.14.91.23,1.37s.16.92.23,1.38.08.63.14.94c.52,3.11,1.07,6.34,1.67,9.7.06.4.15.77.21,1.17s.12.56.17.84c.14.68.27,1.37.39,2.06.27,1.4.55,2.78.82,4.17.21,1,.39,1.94.6,3,.27,1.27.54,2.56.84,3.86v0c.39,1.85.81,3.78,1.27,5.72.06.23.13.45.17.68.18.82.39,1.65.58,2.47.27,1,.52,2.08.79,3.15.34,1.35.71,2.75,1.07,4.15.27,1,.54,2.09.83,3.15s.59,2.13.9,3.19.61,2.15.94,3.24.62,2.17,1,3.27c.1.32.19.61.27.92.38,1.15.73,2.3,1.09,3.49,0,.08,0,.14.06.23s0,.14.08.2.06.21.08.3a1.34,1.34,0,0,1,.07.18l.06.21c.31,1,.63,1.92.92,2.88.6,1.82,1.23,3.65,1.86,5.47q.09.25.18.54c.21.54.4,1.11.59,1.63.31.88.6,1.71.92,2.59,0,.14.1.31.16.48s.19.48.27.71.09.27.15.41l.19.46v0l.06.18.1.32a.23.23,0,0,1,.07.14l.94,2.46c.2.57.43,1.13.66,1.71s.44,1.15.67,1.74c.59,1.5,1.19,3,1.8,4.48v0c.35.88.71,1.76,1.08,2.65.15.36.29.71.46,1.07s.31.73.46,1.1.25.57.35.86l.19.4c.19.41.38.83.54,1.23a2.2,2.2,0,0,1,.17.39,3,3,0,0,1,.15.38c.06.12.12.27.19.4s.1.27.16.41c.31.69.63,1.38,1,2.09s.65,1.44,1,2.15.63,1.38.94,2.07a4,4,0,0,1,.25.56c.13.25.25.52.38.81.37.82.77,1.61,1.17,2.42.1.21.21.4.29.61v0c.77,1.63,1.58,3.3,2.42,4.92l.77,1.53c.21.44.44.85.65,1.27a3.9,3.9,0,0,0,.19.35c.31.59.6,1.19.91,1.78.07.1.11.21.17.31.17.36.36.71.54,1.07.38.68.75,1.41,1.13,2.1.5.94,1,1.88,1.52,2.84s1.05,1.88,1.57,2.84c.33.56.65,1.15,1,1.73a3.47,3.47,0,0,1,.27.46c.67,1.17,1.34,2.32,2,3.48.36.63.73,1.28,1.11,1.92s.75,1.28,1.13,1.92v0c.39.64.77,1.29,1.14,2s.78,1.33,1.17,2l3.88,6.53c.19.29.36.56.53.84s.33.54.5.81v0c.33.54.66,1.11,1,1.65.08.14.19.27.27.42a5.08,5.08,0,0,0,.27.43l1.57,2.55c.6.94,1.21,1.9,1.81,2.86.46.75.94,1.5,1.44,2.27.75,1.17,1.5,2.3,2.28,3.47v0c.56.87,1.14,1.73,1.75,2.61.08.14.19.27.29.41a4.73,4.73,0,0,1,.29.44c.19.29.4.59.61.88.1.14.19.31.31.46s.19.29.29.43c.42.59.82,1.15,1.21,1.76v0c.84,1.17,1.67,2.36,2.51,3.53v0c1.46,2,3,4,4.5,6,.46.6.94,1.23,1.42,1.83l.69.9a6.25,6.25,0,0,1,.4.5s.06.09.08.11c.71.87,1.38,1.73,2.09,2.6,1.06,1.34,2.17,2.68,3.27,4l.76.9q.35.43.75.87c.64.74,1.27,1.47,1.94,2.22s1.15,1.31,1.77,2q1.79,2,3.63,4c.63.67,1.25,1.34,1.88,2s1.27,1.31,1.92,2v0l2,2h0l1.71,1.67c.61.6,1.21,1.19,1.84,1.77h0c1.21,1.15,2.44,2.3,3.69,3.43.34.27.65.56,1,.85s.63.56.94.86l1.94,1.69c.65.54,1.3,1.1,2,1.67h0c.33.29.66.56,1,.83,1.33,1.11,1.67,1.38,2,1.65,1,.83,2.07,1.65,3.11,2.46l1.56,1.21c.53.42,1.07.84,1.61,1.23,2.15,1.61,4.34,3.2,6.6,4.76.48.31.93.63,1.39,1l1.4.94h0c.61.42,1.21.81,1.84,1.23s1.23.79,1.86,1.21l1.25.79c.75.46,1.52.94,2.27,1.42,1,.61,2,1.21,3,1.82l1.77,1,3.28,1.86c2.56,1.42,5.13,2.82,7.68,4.11h0l1.58.81,1.59.82a2.12,2.12,0,0,0,.31.14,1.87,1.87,0,0,1,.31.17c.34.17.67.31,1,.46l.52.25c.35.19.71.35,1.06.52l.31.15a1.38,1.38,0,0,1,.3.14l.6.32h0c2.53,1.19,5,2.33,7.51,3.4h0c.6.27,1.23.52,1.85.79.32.13.63.25.92.4s.65.25,1,.39.44.17.65.27a5.36,5.36,0,0,1,.64.28c.4.14.8.31,1.19.45l1.19.48c1.23.48,2.44,1,3.68,1.42,2.25.84,4.48,1.65,6.69,2.38l3.32,1.11c1.09.35,2.19.69,3.28,1,.37.15.73.23,1.08.36h0c1.07.31,2.13.62,3.18.91a3.19,3.19,0,0,0,.33.11c.4.1.79.21,1.19.33s.54.15.83.23a5.15,5.15,0,0,0,.75.19h0l.75.21,2.9.75a2.22,2.22,0,0,1,.39.1l.15,0c.31.09.6.15.92.23l2.31.57c.21,0,.42.08.65.14l3.19.71a1.28,1.28,0,0,1,.3.07l.29.06a.85.85,0,0,0,.23,0c.79.17,1.52.33,2.29.48.44.08.84.17,1.25.23h0l.2,0a.72.72,0,0,0,.19,0,5,5,0,0,1,.56.11,5.67,5.67,0,0,0,.57.1c.73.13,1.46.27,2.19.38s1.23.23,1.81.31l.44.08c.46.09.92.15,1.38.21l1.19.19,1,.15.71.1a2.45,2.45,0,0,0,.38,0l.39.06h.07a6.13,6.13,0,0,0,.73.11l.39.06c.82.11,1.61.21,2.4.29a1,1,0,0,0,.17,0h0l1.27.12c.42.06.86.1,1.28.15l.39,0,.4,0c.29,0,.58.06.88.08s.58.07.85.09l1.38.12c.37,0,.73.06,1.1.11.8.06,1.59.12,2.36.16h.09l.81.07.81.06h.07a2.68,2.68,0,0,1,.39,0,3,3,0,0,1,.42,0h0l2.61.13c.85,0,1.69.08,2.54.1h.23l.55,0c.23,0,.46,0,.71,0h.58c1.09,0,2.15,0,3.21,0,.38,0,.76,0,1.13,0h.23c.67,0,1.36,0,2,0h.35c.21,0,.44,0,.65,0,.39,0,.79,0,1.19,0l1.39,0c.23,0,.46,0,.69,0h.15l.54,0,.46,0,1.29-.06h.09a.58.58,0,0,0,.23,0,5.62,5.62,0,0,0,.58,0l.9,0h.06c.25,0,.48,0,.73,0a5.9,5.9,0,0,0,.63,0c.21,0,.41,0,.62,0l2.09-.13c.67-.06,1.36-.1,2-.17,1.32-.1,2.61-.22,3.89-.35s2.54-.27,3.79-.44l1.84-.25,1.82-.25,1-.15c.23,0,.48-.08.73-.1l.75-.12c.33-.07.67-.11,1-.17a.93.93,0,0,1,.23,0,0,0,0,0,0,0,0c4.13,5.94,7.87,11.16,11.31,16,.69,1,1.38,1.9,2,2.82s1.31,1.83,2,2.75,1.29,1.82,1.94,2.69c2.42,3.34,4.71,6.51,6.95,9.67.75,1,1.48,2.08,2.23,3.13,1.48,2.08,2.94,4.19,4.4,6.34q1.47,2.13,3,4.32c2,3,4,6,6.07,9.28.5.82,1,1.65,1.56,2.49,1,1.6,2,3.23,3.07,4.92l1,1.71c.75,1.23,1.53,2.51,2.3,3.8s1.56,2.63,2.38,4q2.4,4.1,5,8.7v0l1.08,1.92c.27.48.54,1,.84,1.46s.56,1,.83,1.48c.58,1,1.17,2.07,1.75,3.13s1.19,2.13,1.8,3.26l.08,0a.29.29,0,0,0,0,.08q3.43,6.19,6.89,12.48c1.73,3.13,3.44,6.28,5.17,9.43s3.44,6.26,5.13,9.39c.57,1,1.15,2.09,1.74,3.13,1.73,3.15,3.42,6.28,5.13,9.43a.07.07,0,0,1,0,.06q13-11.67,25.44-24c-6.6-12.19-13.3-24.27-20-36.31l-.07,0,.07,0c-20.45-37-31.93-52.94-46.45-73.06-3-4.19-6.26-8.61-9.77-13.54,60.77-21.81,97.87-68.44,115.5-96.26v0c67-105.88,22.81-226.13,17.55-239.51-6.32-16-30.57-72.65-77.65-127.83-1.71-2-3.46-4-5.28-6.13-9.62-11-20.51-23.58-32.11-43.26-10.62-18-25.16-42.61-28.82-77.25-.31-3.11-.68-6.69-1-10.72a341.39,341.39,0,0,1,102-52.92c67.46-21.56,128.08-17.67,167.08-10.64a31.8,31.8,0,0,0,30.13-11,28,28,0,0,0,3.09-4.42,31.86,31.86,0,0,0,2.28-27.15ZM1321.93,666.71l-1.82-1.26c-.6-.43-1.21-.83-1.81-1.25l-.44-.31c-2.26-1.54-4.49-3.07-6.72-4.55h0c-3.92-2.63-7.83-5.22-11.67-7.72-2-1.27-3.9-2.5-5.82-3.76l-3.42-2.19c-1.15-.71-2.27-1.44-3.38-2.13s-2.25-1.41-3.38-2.1c-2.23-1.4-4.45-2.76-6.64-4.09h0c-1.1-.67-2.19-1.34-3.27-2-2.17-1.32-4.3-2.61-6.45-3.89-1.59-1-3.17-1.87-4.76-2.81l-4.69-2.72-3.09-1.77c-1.71-1-3.4-1.94-5.09-2.88-1-.56-1.94-1.11-2.9-1.65-1.36-.75-2.7-1.48-4-2.21-.77-.44-1.54-.85-2.32-1.27s-1.52-.84-2.27-1.23-1.34-.73-2-1.11l-1-.52-1-.57c-1.85-1-3.71-2-5.53-2.94s-3.61-1.9-5.36-2.79l-5.22-2.7c-2.56-1.29-5-2.52-7.47-3.73l-2.4-1.19c-.27-.15-.5-.25-.75-.37-3.69-1.82-7.22-3.49-10.56-5.08-.35-.18-.7-.35-1.06-.5s-.71-.31-1-.48-.71-.33-1-.5l-1-.48-6-2.75h0c-1.21-.52-2.36-1.05-3.51-1.57-.6-.27-1.19-.52-1.77-.79-32.36-14.19-72.22-31.7-121.59-44.63-7.07-1.84-14.31-3.61-21.76-5.24-2.61-.56-5.22-1.13-7.85-1.67q-5.94-1.22-12-2.34h0q-6.1-1.1-12.37-2.08c-.69-.11-1.38-.21-2.09-.34s-1.4-.23-2.11-.31c-1.4-.23-2.82-.44-4.23-.63s-2.84-.41-4.28-.6-2.88-.38-4.32-.57c-8.68-1.08-17.59-2-26.71-2.71l-2.8-.21a2.33,2.33,0,0,1-.37,0l-2.38-.17-.79,0-3.26-.21c-1.06-.08-2.15-.14-3.21-.2-.34,0-.65-.07-1-.07s-.63,0-.92,0h-.17c-.56,0-1.1-.06-1.67-.08-1.79-.11-3.61-.19-5.4-.27-1.19-.07-2.38-.11-3.57-.13s-2.38-.08-3.55-.1h-.06c-1.86-.07-3.71-.11-5.57-.15-.94,0-1.88,0-2.8,0s-1.83,0-2.75,0q-5.47-.06-10.83,0t-10.52.19c-1.73,0-3.44.1-5.15.16-1.13,0-2.26.07-3.38.13l-3.34.14q-8,.35-15.59.94c-1.54.13-3.09.23-4.61.36-1.8.14-3.59.29-5.36.46l-3.28.31c-2.17.21-4.32.44-6.43.67l-2.9.31c-1.31.15-2.63.29-3.92.46l-2.53.31-.58.07c-2.86.33-5.68.7-8.43,1.12l-3.65.52-6.62,1c-1.31.2-2.63.43-3.92.64-.23,0-.46.09-.69.11-2.5.41-5,.83-7.36,1.27-2.59.46-5.12.92-7.58,1.42h0l-.5.1-3.86.77-.48.09-3.88.81c-1.88.4-3.74.77-5.53,1.17l-2.65.61c-.86.18-1.71.37-2.57.58-3.06.71-6,1.4-8.76,2.09l-2.48.62c-.4.11-.76.21-1.13.29-4.11,1-7.81,2-11.08,2.93l-1.8.5c-1.75.5-3.36,1-4.84,1.35-.64.19-1.27.36-1.88.52q-3.66,1-7.32,2.13l-7.32,2.19c-2.11.65-4.22,1.32-6.33,2l-1,.31c-.27.08-.58.19-.85.25l0,0c-1.8.56-3.57,1.15-5.35,1.75-.35.11-.69.21-1,.34-2.34.75-4.65,1.52-7,2.34a.25.25,0,0,0-.12,0,1,1,0,0,0-.32.12l-.56.19c-2.19.75-4.4,1.5-6.57,2.27l-6.14,2.19c-.37.13-.73.25-1.1.4l-2,.71-7.05,2.63c-3,1.15-6,2.27-9,3.46l0,0q-4.49,1.78-8.93,3.59c-1.23.5-2.47,1-3.7,1.53-1.75.71-3.48,1.44-5.23,2.17-4.76,2-9.48,4.07-14.19,6.19l-5.2,2.34-1.73.79s-.06,0-.06,0a.1.1,0,0,0-.07,0l-.06,0a.26.26,0,0,0-.15.06c-.33.17-.64.31-1,.46l-.14.06c-.15.06-.29.15-.46.21-1.15.52-2.32,1.07-3.49,1.63-.58.29-1.19.56-1.77.85s-1.17.53-1.73.82c0,0,0,0-.09,0s-.06,0-.1,0a2.38,2.38,0,0,1-.31.17,1.12,1.12,0,0,0-.29.14.27.27,0,0,1-.13.05l-.23.1c-.73.35-1.44.71-2.15,1s-1.17.57-1.73.84a11.37,11.37,0,0,0-1.11.54c-.23.11-.46.21-.69.33l-.45.23c-1.32.63-2.61,1.28-3.91,1.9-.18.09-.37.17-.54.27l-.56.3c-.23.12-.48.23-.71.33-.94.46-1.86.94-2.78,1.42l-3.48,1.75a0,0,0,0,0,0,0c-2,1-4,2-5.91,3.05-.33.17-.69.33-1,.52-1.59.79-3.15,1.63-4.72,2.51-1,.48-1.94,1-2.9,1.52q-3.12,1.65-6.21,3.38c-1.86,1-3.7,2-5.53,3.07-.34.18-.69.35-1.05.56l-1,.58c-2,1.15-4.09,2.32-6.14,3.49-2.25,1.27-4.48,2.59-6.74,3.92a.16.16,0,0,0-.16.11c-1.86,1-3.7,2.15-5.55,3.27-.67.38-1.32.77-2,1.19-4.09,2.44-8.18,4.93-12.21,7.47-3.19,2-6.34,4-9.5,6.05-1.48.94-2.94,1.9-4.4,2.86-2.21,1.44-4.44,2.92-6.65,4.4s-4.45,3-6.64,4.49c-2.11-2.8-4.22-5.61-6.26-8.45s-4.13-5.68-6.14-8.54-4-5.71-6-8.59q-6-8.64-11.56-17.43t-11-17.71q-5.36-8.93-10.41-18t-9.81-18.23q-11.93-22.95-21.93-46.6c-2.09-4.95-4.19-9.91-6.24-14.9-1-2.48-2.07-5-3.11-7.49-3.09-7.49-6.09-15-8.95-22.62v0c-.9-2.38-1.8-4.76-2.65-7.16-.11-.29-.21-.58-.31-.85-.76-2.11-1.49-4.22-2.22-6.33-1.87-5.46-3.65-10.95-5.3-16.48-.39-1.3-.77-2.61-1.14-3.92-.65-2.28-1.28-4.55-1.88-6.85-.79-3-1.52-6-2.21-9-.32-1.32-.61-2.63-.88-4q-1.56-7.09-2.71-14.29c-.27-1.67-.52-3.32-.75-5s-.46-3.42-.67-5.13c-.13-1.1-.25-2.19-.38-3.3-.23-2.19-.44-4.4-.6-6.61-.52-6.91-.75-13.9-.61-21,0-1.36.07-2.72.13-4.07.06-1.86.14-3.74.27-5.61.1-1.38.21-2.78.33-4.18s.25-2.79.38-4.21c.5-4.68,1.15-9.39,2-14.17q.72-4.29,1.67-8.64c.29-1.36.61-2.75.94-4.24s.67-3,1-4.61.77-3.25,1.21-5c.17-.67.34-1.36.52-2a182.68,182.68,0,0,1,7.06-21.68c.29-.75.58-1.48.89-2.23s.63-1.5,1-2.26a133.81,133.81,0,0,1,6.49-12.95l.88-1.51c.29-.5.61-1,.9-1.52l.67-1c.16-.27.33-.52.52-.8.48-.79,1-1.58,1.54-2.37a4.43,4.43,0,0,1,.29-.46c.3-.46.59-.9.9-1.34s.71-1,1.07-1.48.7-1,1.08-1.5.73-1,1.11-1.46q2.84-3.68,6.05-7.18c.41-.48.87-.94,1.31-1.42l.67-.69c.21-.23.44-.46.67-.69h0c.92-.94,1.86-1.86,2.82-2.75q1.62-1.57,3.33-3c.63-.56,1.26-1.1,1.9-1.6s1.3-1.07,2-1.57,1.32-1,2-1.54c1.73-1.3,3.48-2.51,5.21-3.63.71-.51,1.44-1,2.15-1.4a110,110,0,0,1,18.57-9.31l1.82-.69q1-.37,1.92-.69c.83-.29,1.64-.55,2.45-.82,2-.66,3.95-1.25,5.85-1.78a145.49,145.49,0,0,1,22.08-4.14c1-.1,2-.2,3-.31,1.59-.15,3-.27,4.32-.4l3.49-.27c1.17-.08,2.34-.14,3.48-.18s2.38-.11,3.57-.13a157.52,157.52,0,0,1,23.48,1.27s0,0,0,0a1.27,1.27,0,0,1,.29,0q2,.26,3.9.57c1.4.21,2.78.46,4.13.69,0,0,0,0,0,0a1.17,1.17,0,0,1,.26,0c3.56.67,7.11,1.42,10.55,2.27l.55.15c1.58.4,3.17.79,4.73,1.25a200.44,200.44,0,0,1,41.57,17.05c.92.5,1.81,1,2.71,1.48l.82.48c.91.5,1.81,1,2.69,1.54,2.38,1.36,4.67,2.76,6.9,4.18q3.83,2.4,7.37,4.82c2.36,1.61,4.63,3.23,6.82,4.82a24.16,24.16,0,0,0,6.64,3.4c.58.19,1.15.35,1.75.5s1.17.25,1.78.33,1.16.17,1.75.23h0a22.44,22.44,0,0,0,7.51-.66,21.08,21.08,0,0,0,3.67-1.3,24.46,24.46,0,0,0,5.18-3.21,23.75,23.75,0,0,0,4.24-4.45c.2-.31.43-.6.62-.91a22.54,22.54,0,0,0,3.38-8.2,8.29,8.29,0,0,0,.19-1.09c0-.27.08-.54.1-.81a10.4,10.4,0,0,0,.11-1.23c0-.42,0-.84,0-1.26a23.44,23.44,0,0,0-2.09-9.66,153.32,153.32,0,0,1-9.51-28.42c-.59-2.5-1.09-5-1.52-7.51-.15-.75-.28-1.5-.4-2.25-.29-1.82-.61-3.82-.92-6s-.63-4.49-.9-6.93c-.12-1.11-.25-2.25-.35-3.44-.08-.88-.15-1.78-.21-2.69s-.15-2.11-.21-3.22c0-.27,0-.56,0-.83-.13-2.84-.17-5.78-.1-8.85,0,0,0-.1,0-.15,0-.91.06-1.85.1-2.79a.25.25,0,0,1,0-.17.75.75,0,0,1,0-.21c0-1.15.1-2.29.21-3.46s.21-2.36.33-3.55c.09-.86.19-1.69.3-2.55,0-.35.1-.73.16-1.08.11-.88.25-1.75.4-2.65.1-.71.23-1.44.37-2.17s.28-1.46.44-2.19c.17-.92.38-1.84.59-2.74s.5-2.06.77-3.1.58-2.11.9-3.18.64-2.12,1-3.19S680.59,108,681,107c.73-2,1.56-4.07,2.44-6.12a4.38,4.38,0,0,1,.23-.5c.48-1.06,1-2.13,1.48-3.19s1.08-2.23,1.67-3.34c.33-.6.71-1.33,1.17-2.13a114.1,114.1,0,0,1,11.37-16.57q.75-.93,1.56-1.89c2.15-2.53,4.55-5.14,7.22-7.75,1.74-1.71,3.59-3.44,5.55-5.13,1.32-1.15,2.67-2.27,4.09-3.38.69-.56,1.42-1.11,2.15-1.67A108.36,108.36,0,0,1,734.49,46c.9-.48,1.79-.94,2.71-1.4,2.75-1.36,5.61-2.65,8.62-3.82a104.52,104.52,0,0,1,10-3.36q2.48-.66,4.89-1.21a104.32,104.32,0,0,1,12-1.9c1.56-.15,3.11-.27,4.65-.35,12.62-.71,24.83.68,37.41,2.1,1.86.21,3.72.44,5.53.71,1.61.21,3.2.46,4.76.71l1.75.29c1.23.19,2.45.42,3.66.65.41.06.83.15,1.25.23,1.42.27,2.83.54,4.23.86.23,0,.44.08.67.14,1.61.34,3.19.69,4.76,1.07a237.45,237.45,0,0,1,28.29,8.57c2.93,1.09,5.74,2.19,8.48,3.32h0c2.75,1.15,5.42,2.3,8,3.46l3.11,1.44c1.1.51,2.19,1,3.25,1.55l2.05,1c2,1,4,2,5.84,3,3.17,1.66,6.16,3.31,8.95,4.92.57.31,1.13.63,1.67,1,1.09.63,2.15,1.27,3.19,1.9,1.44.85,2.8,1.69,4.14,2.52,5.9,3.7,10.64,6.95,14.12,9.33l1,.65c1.3.92,2.8,2,4.45,3.17,1.23.88,2.54,1.86,4,2.94,1.86,1.42,3.88,3,6,4.7q2.13,1.71,4.45,3.63l2.31,2c1.17,1,2.38,2,3.61,3.13.61.52,1.23,1.06,1.88,1.65,1.25,1.1,2.53,2.25,3.82,3.46s2.61,2.42,3.94,3.69l2,2c.91.87,1.83,1.77,2.73,2.67,1.15,1.12,2.29,2.29,3.46,3.48s2.34,2.38,3.51,3.63,2.36,2.49,3.55,3.78l3.56,3.92q4.35,4.86,8.71,10.14,2.88,3.51,5.82,7.24v0q4.35,5.6,8.68,11.66,2.25,3.17,4.44,6.38c2.92,4.3,5.74,8.69,8.43,13.13,1.36,2.21,2.67,4.44,4,6.7q3.57,6.13,6.84,12.39c1.11,2.09,2.17,4.2,3.22,6.3s2.06,4.24,3.08,6.37c1.36,2.86,2.65,5.72,3.91,8.6a19.63,19.63,0,0,0,1.44,2.77c.23.4.48.77.75,1.15a19.51,19.51,0,0,0,2,2.55l.56.6a23.5,23.5,0,0,0,2.49,2.19,8.19,8.19,0,0,0,.77.54c.29.23.58.42.9.63l.12.06c.46.29.94.57,1.42.82.33.18.67.35,1,.5a21.88,21.88,0,0,0,3.09,1.19c.52.14,1.07.29,1.61.41a23.4,23.4,0,0,0,8,.38c.65-.08,1.3-.19,1.92-.33s1.23-.3,1.86-.46,1.19-.4,1.77-.63a11.81,11.81,0,0,0,1.21-.5c.07,0,.15-.06.21-.1a9.26,9.26,0,0,0,1.21-.63,1.47,1.47,0,0,0,.48-.25,5.47,5.47,0,0,0,.86-.52,6.08,6.08,0,0,0,.89-.57c.48-.33.94-.68,1.4-1s1-.86,1.48-1.31.69-.71,1-1.07.41-.46.6-.69a8.63,8.63,0,0,0,.81-1,18,18,0,0,0,1.07-1.52,23.42,23.42,0,0,0,1.71-3.3,18.9,18.9,0,0,0,.67-1.77c.21-.61.37-1.21.52-1.84s.29-1.25.4-1.9a78,78,0,0,1,3.29-13.25c.59-1.73,1.23-3.46,1.94-5.13,4.07-9.73,13.92-27.69,34.06-38.94.85-.48,1.73-.94,2.61-1.38s1.56-.79,2.35-1.14c1.24-.59,2.49-1.11,3.74-1.61q2.22-.88,4.51-1.61h0a76.64,76.64,0,0,1,8.8-2.25,83.27,83.27,0,0,1,18.95-1.38,4.52,4.52,0,0,1,.52,0,99.31,99.31,0,0,1,10.41,1.07c2.11.31,4.26.73,6.41,1.21.71.14,1.44.31,2.15.5s1.4.33,2.11.52c2.9.75,5.82,1.65,8.78,2.67.94.31,1.86.65,2.76,1,.48.19.93.36,1.39.57.67.25,1.32.52,2,.79,1,.42,2,.85,2.92,1.31s1.92.92,2.83,1.4,1.67.86,2.49,1.32c.16.08.31.18.48.27.54.29,1.06.6,1.58.91s1,.57,1.44.86c2.34,1.42,4.57,2.94,6.72,4.51,1.41,1,2.74,2.15,4.08,3.25.74.61,1.48,1.2,2.19,1.82,1.59,1.38,3.14,2.78,4.62,4.23.32.32.63.61.92.92,2.09,2.07,4.07,4.2,6,6.37,1,1.08,1.88,2.19,2.8,3.29.69.82,1.35,1.67,2,2.51s1.31,1.67,1.94,2.52,1.27,1.69,1.9,2.55,1.25,1.71,1.84,2.56c1.6,2.26,3.13,4.55,4.63,6.81.5.75,1,1.52,1.48,2.27l1.44,2.23,2.82,4.45c.91,1.46,1.81,2.9,2.69,4.34q4.15,6.73,7.51,13.31c.48.92.94,1.82,1.38,2.74s1,2.08,1.52,3.13c.33.68.65,1.39,1,2.08.4.88.79,1.73,1.17,2.59.52,1.19,1,2.38,1.52,3.55a2.57,2.57,0,0,1,.11.27c.52,1.27,1,2.52,1.52,3.75v0c.46,1.16.9,2.33,1.34,3.48.08.21.14.4.2.56.4,1.11.8,2.22,1.17,3.3.73,2.09,1.42,4.13,2,6.14.21.68.41,1.37.62,2s.46,1.54.67,2.32q1.47,5.07,2.59,9.7c.25,1.11.5,2.19.75,3.25.38,1.63.71,3.22,1,4.76s.63,3,.9,4.47c.15.73.27,1.42.4,2.11.23,1.27.43,2.5.66,3.67.25,1.44.48,2.81.69,4.09a262.76,262.76,0,0,1,3.17,27.33c.44,7.26.61,14.57.46,21.85,0,1.84-.08,3.67-.16,5.51-.17,3.61-.38,7.22-.67,10.83-.06.65-.08,1.29-.08,1.94s0,1.11.06,1.65a24.94,24.94,0,0,0,.44,3.17c.06.29.12.56.2.83.11.46.23.9.36,1.34s.31.94.5,1.4a14.94,14.94,0,0,0,.67,1.54c.21.44.42.88.67,1.32a2.9,2.9,0,0,0,.2.33,14.88,14.88,0,0,0,.78,1.27c.29.44.6.88.91,1.3a23.65,23.65,0,0,0,4.95,4.78c.46.31,1,.64,1.44.93s1,.59,1.52.86,1.07.52,1.61.75a23.7,23.7,0,0,0,5.55,1.55l.27,0c.46.08.92.12,1.4.16,0,0,0,0,.08,0,.55.05,1.09.07,1.63.07h.06a14.82,14.82,0,0,0,1.76-.09,10.6,10.6,0,0,0,1.37-.14,22.71,22.71,0,0,0,6-1.65c.29-.13.61-.27.9-.42a23,23,0,0,0,6.63-4.8,3.34,3.34,0,0,0,.44-.48c.15-.14.29-.31.44-.48.44-.5.88-1,1.34-1.48s.91-1,1.37-1.42a50.41,50.41,0,0,1,9.14-7.22c.4-.25.8-.48,1.19-.69s.8-.44,1.21-.64.8-.4,1.21-.59.82-.37,1.21-.56c.73-.31,1.46-.61,2.21-.88.53-.19,1-.35,1.57-.52,1-.33,2-.63,3-.86.58-.14,1.16-.27,1.77-.39a62.15,62.15,0,0,1,14.65-1.13c1.67.08,3.32.19,4.94.36a1,1,0,0,1,.25,0,98,98,0,0,1,11.27,1.83,1.24,1.24,0,0,0,.23,0l2.53.61c.43.1.87.23,1.29.33l2.36.65a1.73,1.73,0,0,1,.37.11c.61.16,1.19.35,1.71.52s1.19.37,1.7.54c.25.08.48.15.68.23a6.63,6.63,0,0,1,.63.21c1.36.48,2.15.79,2.19.81.94.4,1.86.82,2.78,1.25l.48.23c.81.38,1.6.8,2.4,1.23a4.73,4.73,0,0,1,.45.23c1.63.88,3.24,1.84,4.8,2.86.4.27.8.52,1.19.8.67.43,1.3.89,1.94,1.37,1,.73,2,1.5,3,2.3,1.77,1.44,3.5,3,5.19,4.59s3.34,3.34,5,5.15,3.17,3.74,4.67,5.74A128,128,0,0,1,1452.8,420c.4.83.8,1.69,1.17,2.55,1,2.19,1.94,4.44,2.84,6.76.88,2.15,1.69,4.34,2.48,6.59.4,1.13.8,2.25,1.19,3.42.8,2.3,1.55,4.66,2.28,7.06s1.39,4.75,2.08,7.19q3.95,14.54,6.83,31.45c.06.4.25,1.5.48,3.28.06.44.12.91.18,1.42s.13,1.08.21,1.69c0,.29.07.6.11.91,0,.07,0,.15,0,.23.06.71.14,1.49.23,2.28.17,1.67.33,3.52.46,5.55s.29,4.38.39,6.82a2.17,2.17,0,0,1,0,.36c.09,2,.15,4.13.21,6.36V514a.15.15,0,0,1,0,.13c.11,6.26,0,13.35-.39,21.1-.07,1-.11,2-.17,3-.15,2-.29,4.07-.48,6.18-.08,1.17-.21,2.36-.33,3.57-.13,1.37-.28,2.75-.44,4.15-.36,3.11-.77,6.28-1.28,9.53-.22,1.57-.48,3.13-.75,4.74-.81,4.88-1.79,9.91-3,15-.35,1.53-.71,3.07-1.11,4.64s-.73,2.94-1.12,4.42c-.11.36-.19.71-.29,1-.4,1.5-.82,3-1.28,4.54,0,.13-.06.23-.1.34-.46,1.65-1,3.31-1.5,5a.38.38,0,0,1,0,.17c-.52,1.61-1,3.23-1.58,4.86a3.25,3.25,0,0,0-.15.4c-.54,1.65-1.12,3.27-1.73,4.92-2.42,6.62-5.17,13.28-8.33,20-.6,1.27-1.21,2.55-1.83,3.8s-1.34,2.65-2,4-1.37,2.63-2.08,3.95q-5,9.23-11.17,18.32c-.58.86-1.16,1.73-1.79,2.59a220.7,220.7,0,0,1-25.35,30.15c-2.15,2.17-4.41,4.28-6.7,6.36-.48,0-1,0-1.46,0s-1.3-.06-1.94-.06-1.32,0-2-.06c-1.5,0-3,0-4.5,0h-1.92c-.63,0-1.28,0-1.92,0h-.13c-.73,0-1.44,0-2.17.06-1.06,0-2.13.06-3.19.08h0a6,6,0,0,1-.61,0,4.38,4.38,0,0,1-.52,0c-.69,0-1.38.07-2.09.11s-1.48.06-2.21.12l-.79.07c-.38,0-.77,0-1.17.08l-1,.06a5.49,5.49,0,0,0-.6,0c-.36,0-.69.07-1,.11l-.64,0h0c-1.26-1-2.51-2-3.76-2.92s-2.42-1.9-3.63-2.82c-3.63-2.81-7.26-5.57-10.85-8.24q-3.57-2.7-7.14-5.3c-1.71-1.25-3.4-2.5-5.09-3.71-.67-.46-1.31-.94-2-1.42s-1.25-.88-1.86-1.34l-1.84-1.31h0c-.91-.67-1.83-1.32-2.75-2s-1.84-1.32-2.76-2Zm36.47,216.7a2,2,0,0,1-.16.39,6.82,6.82,0,0,1-.46.88A66.85,66.85,0,0,1,1353,891c-5.76,7.06-13.63,16.7-20.64,33.91q-1.35,3.29-2.5,6.64A140.5,140.5,0,0,0,1325,948.8a157.88,157.88,0,0,0-3.4,35.64l0,1.69c0,.88,0,1.76.08,2.59v.46c0,.21,0,.44,0,.67s0,.46,0,.67v.41c0,.44.05.88.09,1.3s0,.85.06,1.27.06,1.15.1,1.69.09,1.09.13,1.63l.06.69c0,.23,0,.48.06.69s0,.45.07.66,0,.46,0,.67c0,.44.08.88.12,1.29s.11,1,.15,1.55c.15,1.52.29,2.94.44,4.28s.29,2.6.46,3.86v0c.12,1.06.25,2.1.41,3.13s.34,2.19.51,3.25c.23,1.42.48,2.82.75,4.22.77,4.17,1.67,8.2,2.67,12.12l.81,3.09c.23.77.44,1.54.65,2.29s.44,1.49.67,2.24c0,.16.1.35.16.52.27.94.57,1.88.88,2.8.1.35.21.73.33,1.08s.3.84.42,1.23.25.82.4,1.21c.54,1.57,1.08,3.11,1.65,4.59.29.8.58,1.57.89,2.34.19.48.38,1,.57,1.42s.35.94.54,1.4c0,0,0,.06,0,.1.25.59.48,1.17.73,1.75s.48,1.17.73,1.74l.75,1.75c.25.58.5,1.17.75,1.73l.48,1c.15.36.32.69.48,1l1.19,2.58c.4.84.77,1.67,1.19,2.49s.75,1.52,1.15,2.27.73,1.5,1.11,2.23a2.19,2.19,0,0,1,.16.3c.4.77.8,1.5,1.17,2.23s.79,1.46,1.17,2.19c.21.4.42.77.63,1.15s.41.77.6,1.15l.94,1.64.86,1.57c.64,1.1,1.25,2.19,1.85,3.25.4.69.8,1.36,1.17,2s.77,1.33,1.17,2c.06.1.12.21.19.31v0l2,3.43c1.23,2.08,2.46,4.11,3.7,6.07q1.21,2,2.44,3.84c.79,1.23,1.6,2.46,2.4,3.65s1.6,2.36,2.4,3.51,1.56,2.25,2.35,3.33a353,353,0,0,0,22.41,27.86l2.59,3,2.49,2.93a426.2,426.2,0,0,1,26.29,34.32c3.31,4.84,6.47,9.6,9.39,14.25,2,3.09,3.84,6.14,5.65,9.12,4.51,7.49,8.52,14.61,12,21.18,1,2,2.05,3.88,3,5.74v0c1,1.86,1.87,3.67,2.75,5.41v0c7,14,11.21,24.26,12.77,28.21,3.51,8.93,26.88,72.36,12.08,142.68-.08.46-.18.94-.29,1.4a209.13,209.13,0,0,1-5.78,21.2c-.4,1.21-.81,2.44-1.25,3.66q-1.94,5.51-4.24,11c-1,2.44-2.1,4.86-3.23,7.31-1.71,3.67-3.57,7.3-5.55,10.93-1.34,2.42-2.71,4.84-4.15,7.24-.73,1.21-1.49,2.42-2.24,3.61a0,0,0,0,0,0,0h0a229.85,229.85,0,0,1-19.38,26.29q-4.11,4.78-8.77,9.69c-20.8,21.61-50.39,43.36-89.81,52.22-2.27.53-4.67,1-7.13,1.44l-2.47.44c-2.23.36-4.46.69-6.69.94s-4.28.5-6.41.67a4.22,4.22,0,0,1-.52,0h0a.58.58,0,0,0-.19,0c-.77,0-1.57.11-2.36.17-.4,0-.83.06-1.25.06l-1.25.08a6.35,6.35,0,0,1-.76,0c-.22,0-.48,0-.73,0l-1.48.06a2.06,2.06,0,0,1-.35,0,.5.5,0,0,1-.17,0h-.17c-1.5,0-3,.06-4.52.06-1.13,0-2.22,0-3.34-.06h-.19c-.79,0-1.61,0-2.4-.06l-3-.13c-1,0-2-.1-3-.18-.81-.07-1.65-.11-2.48-.19l-2.46-.25h0a2.82,2.82,0,0,1-.4,0c-.67-.09-1.38-.15-2.09-.23a.8.8,0,0,1-.23,0h0a1.1,1.1,0,0,1-.25,0c-.64-.06-1.29-.14-2-.25l-1.29-.16-.71-.11a1.11,1.11,0,0,1-.23,0h0a1,1,0,0,1-.25,0l-1.48-.23a4.37,4.37,0,0,0-.48-.08l-.48-.07-.11,0-.9-.16-.12,0c-.46-.07-.94-.13-1.38-.23-.83-.13-1.65-.3-2.48-.46-1-.19-1.92-.36-2.86-.57l-1.11-.23c-1.27-.25-2.56-.54-3.84-.85l-.87-.21-1.75-.46a3.93,3.93,0,0,0-.44-.1l-1-.27c-1.34-.34-2.68-.69-4-1.09-.15-.06-.31-.08-.46-.13a4.67,4.67,0,0,1-.5-.14l-.5-.13-1.29-.41-1.59-.48c-1.13-.36-2.3-.73-3.44-1.11l-1-.33c-1-.36-2.07-.71-3.09-1.09l-1.11-.37c-.71-.28-1.42-.53-2.13-.82l-.27-.08c-.06,0-.14-.06-.23-.11a.9.9,0,0,1-.23-.08l-2.88-1.13c-1.9-.77-3.82-1.56-5.74-2.4-1-.41-1.92-.83-2.88-1.27-2.87-1.29-5.73-2.67-8.59-4.11h0c-1.9-1-3.8-2-5.72-3l-2.86-1.57c-.5-.29-1-.56-1.48-.85s-1-.57-1.46-.86l-1.3-.75c-.35-.19-.68-.4-1-.61s-.85-.52-1.27-.79-.86-.5-1.27-.77-.65-.4-.94-.61-.63-.37-.94-.58l-.63-.42c-.35-.23-.73-.46-1.06-.69l-1.07-.69-.31-.2c-.31-.23-.67-.46-1-.69-.48-.31-.94-.63-1.4-.94s-.81-.54-1.21-.84c-.75-.52-1.48-1-2.21-1.58-.52-.38-1-.75-1.54-1.15s-.82-.6-1.24-.92c-.2-.14-.39-.31-.6-.46l-.11-.08-1.69-1.31h0c-1.87-1.44-3.67-2.93-5.44-4.43l-1.15-1-1.15-1c-.62-.54-1.23-1.09-1.83-1.63-1.21-1.08-2.4-2.17-3.57-3.3-.59-.52-1.17-1.08-1.73-1.64-.19-.19-.36-.36-.55-.53l-1-1c-1-1-2-2-3-3-.25-.26-.48-.53-.73-.78s-.48-.52-.73-.77c-.46-.5-.94-1-1.4-1.52s-.94-1-1.42-1.52c-.92-1.05-1.84-2.07-2.73-3.09s-1.78-2.07-2.65-3.11-1.61-1.94-2.4-2.94c-.15-.19-.34-.42-.48-.61s-.57-.67-.8-1a.57.57,0,0,1-.12-.15,3.24,3.24,0,0,1-.27-.35,1.93,1.93,0,0,1-.19-.27c-.63-.75-1.19-1.51-1.78-2.26q-2.14-2.77-4.15-5.59c-.29-.42-.58-.83-.89-1.25s-.61-.84-.9-1.27c-.13-.17-.25-.36-.36-.53s-.25-.35-.37-.52l-.4-.56c-.25-.38-.5-.73-.75-1.09l-.75-1.08c-.23-.34-.44-.67-.67-1s-.44-.65-.65-1-.52-.82-.81-1.21-.38-.59-.58-.88c-.5-.77-1-1.56-1.53-2.34-1.1-1.71-2.19-3.42-3.23-5.13l-1.13-1.82c-.67-1-1.29-2.06-1.92-3.1-.19-.32-.37-.63-.58-1s-.25-.43-.4-.66a1.09,1.09,0,0,0-.14-.23,2.07,2.07,0,0,0-.15-.25,2.48,2.48,0,0,0-.17-.29s-.06-.11-.08-.15,0,0,0-.06a1.51,1.51,0,0,1-.25-.42c-1.21-2-2.38-4-3.55-6s-2.3-3.92-3.42-5.84c-.32-.55-.63-1.09-.92-1.61l-1.15-2-1.06-1.88c-.4-.69-.78-1.38-1.15-2.07-.23-.44-.48-.89-.73-1.35a7.12,7.12,0,0,0-.36-.67v0a2.09,2.09,0,0,0-.25-.46,4.57,4.57,0,0,0-.23-.42,3.64,3.64,0,0,1-.23-.39c-.23-.48-.5-1-.75-1.42l-2.42-4.74c-.79-1.59-1.56-3.15-2.33-4.72a.8.8,0,0,1-.11-.25,2.38,2.38,0,0,1-.12-.27c-.23-.48-.46-1-.71-1.44a.07.07,0,0,0,0,0c-.69-1.5-1.4-3-2.07-4.46-.06-.15-.12-.28-.19-.42s-.14-.27-.21-.42-.2-.48-.31-.73-.21-.48-.31-.73a4.9,4.9,0,0,1-.21-.46,3.54,3.54,0,0,0-.23-.48v0c0-.08-.08-.19-.13-.29l-.12-.29v0s0-.07,0-.09l-.07-.1c-.08-.17-.14-.36-.22-.52-.36-.82-.69-1.63-1-2.47a4,4,0,0,1-.21-.46.12.12,0,0,0,0-.08s0,0,0-.06a.77.77,0,0,1-.06-.15c-.27-.62-.54-1.27-.82-1.9l-.93-2.29c-.19-.42-.36-.86-.53-1.3s-.33-.87-.52-1.29c-.62-1.63-1.27-3.23-1.88-4.84-.31-.79-.6-1.59-.87-2.38l-.88-2.38v0c-.87-2.38-1.69-4.71-2.44-7-.25-.79-.52-1.57-.77-2.34-.5-1.52-1-3.07-1.46-4.57v0c-.48-1.52-.94-3-1.38-4.53-1.11-3.75-2.11-7.43-3.05-11l-.81-3.21c-.08-.35-.19-.71-.27-1-.19-.71-.36-1.42-.5-2.13s-.36-1.4-.5-2.09c-.09-.44-.21-.83-.29-1.25-.23-1-.44-1.92-.65-2.86-.29-1.35-.59-2.71-.88-4s-.56-2.65-.81-3.94c0-.21-.09-.44-.13-.65l-.12-.62c-.11-.44-.19-.88-.27-1.3s-.17-.85-.25-1.27c-.17-1-.38-2-.53-2.9l-.06-.31c0-.11,0-.21-.06-.34a.3.3,0,0,1,0-.14c-.13-.65-.23-1.28-.34-1.88s-.25-1.23-.35-1.86-.19-1.17-.29-1.75-.19-1.15-.29-1.71c-.19-1.15-.36-2.26-.55-3.36a.78.78,0,0,1,0-.21c-.14-.92-.29-1.84-.42-2.73s-.27-1.8-.41-2.7c-.09-.6-.19-1.19-.27-1.79-.28-1.77-.53-3.53-.78-5.2a.55.55,0,0,0,0-.18.58.58,0,0,0,0-.19,3.14,3.14,0,0,1-.08-.46,7.5,7.5,0,0,0-.11-.81v0c-.06-.54-.14-1.06-.23-1.6a423.43,423.43,0,0,1-3.79-80.55c.1-2.19.23-4.34.35-6.49.06-1.08.15-2.13.21-3.19s.15-2.09.23-3.13.17-2.09.25-3.11.19-2,.27-3.05.15-1.79.25-2.67c.09-1.1.21-2.21.31-3.29.07-.53.11-1.05.17-1.57,0-.06,0-.1,0-.17s0-.1,0-.16c0-.52.09-1,.15-1.53s.1-.83.17-1.23.08-.94.14-1.39c.09-.78.17-1.51.25-2.26a.25.25,0,0,0,0-.12v0a.13.13,0,0,1,0-.09V1200c.11-.84.21-1.65.32-2.46a6.41,6.41,0,0,0,.08-.65c.08-.81.19-1.63.29-2.44s.23-1.82.36-2.71c.21-1.67.44-3.3.71-4.91a2.09,2.09,0,0,1,0-.35c0-.17,0-.34.06-.48.17-1.21.36-2.42.52-3.59s.36-2.34.52-3.49c.36-2.15.67-4.23,1-6.28,0-.08,0-.19,0-.27l.06-.35a1,1,0,0,1,0-.25c.13-.78.25-1.53.38-2.3,0-.25.08-.5.12-.73s.09-.48.13-.73c.06-.5.14-1,.23-1.44,0-.06,0-.15,0-.21.06-.44.15-.9.21-1.35.12-.71.23-1.42.35-2.15.11-.57.21-1.15.3-1.76,0-.08,0-.16,0-.25l.18-1a3.79,3.79,0,0,0,.09-.52,4.68,4.68,0,0,0,.08-.54c.09-.44.15-.88.21-1.34.06-.27.1-.54.15-.81.25-1.49.5-3,.79-4.59.15-.78.27-1.59.42-2.4s.29-1.65.44-2.49c.06-.41.14-.85.22-1.27a7.39,7.39,0,0,1,.13-.75c0-.17.06-.36.08-.52.19-1,.38-2.11.61-3.2.12-.68.25-1.41.39-2.12.09-.46.17-.92.28-1.38s.16-.92.25-1.38a4063773126679.31,4063773126679.31,0,0,1,.16-.88s0-.06,0-.08a.07.07,0,0,1,0-.06c0-.21.09-.44.13-.65,0,0,0-.06,0-.1.15-.84.31-1.67.48-2.51.11-.48.19-1,.29-1.44s.19-1,.32-1.48.18-1,.29-1.48.21-1,.31-1.52c0-.17.06-.32.11-.48.29-1.34.6-2.72.87-4.11.44-2.07.9-4.2,1.42-6.35,0-.14.06-.27.08-.39s.07-.3.09-.42c.1-.4.19-.79.29-1.21s.19-.81.29-1.23q.69-3,1.44-6c.06-.21.11-.44.17-.67.56-2.25,1.15-4.55,1.75-6.89.15-.58.29-1.16.46-1.75s.29-1.17.46-1.77c.31-1.19.63-2.36,1-3.57s.67-2.42,1-3.63c.11-.34.19-.69.29-1,.48-1.74,1-3.49,1.53-5.26.1-.36.21-.73.31-1.11s.27-.87.4-1.31c.87-2.86,1.75-5.76,2.69-8.7.15-.46.29-.92.44-1.38.41-1.27.83-2.57,1.27-3.88,0-.13.08-.25.13-.38.35-1.19.75-2.34,1.16-3.52.23-.65.44-1.3.67-2l0,0c.19-.66.42-1.31.67-2,.81-2.32,1.65-4.63,2.5-7,.13-.33.23-.67.38-1l.06-.19c.09-.21.17-.44.25-.67s.15-.44.23-.64c.29-.84.63-1.67,1-2.53.23-.69.5-1.38.75-2.07,0-.06.07-.12.09-.18a1.11,1.11,0,0,1,.08-.21.33.33,0,0,0,0-.13s0,0,0-.06a.07.07,0,0,1,0-.06c0-.09.07-.19.11-.27v0a4.68,4.68,0,0,1,.19-.45v0c.06-.16.1-.33.18-.5a.12.12,0,0,0,.05-.1s0-.06,0-.1c.1-.28.23-.59.35-.88s.13-.38.21-.56.11-.23.15-.36c.29-.73.56-1.48.85-2.19l.07-.21c.35-.92.73-1.86,1.12-2.77a10.31,10.31,0,0,1,.48-1.17.37.37,0,0,1,0-.11c.55-1.35,1.09-2.69,1.67-4.07,1.15-2.77,2.34-5.59,3.61-8.41.59-1.39,1.23-2.81,1.88-4.23l1.94-4.26c.06-.14.13-.31.21-.48s.08-.19.13-.27l.06-.12c.33-.67.65-1.34,1-2,.14-.27.25-.52.37-.79,0,0,0,0,0-.06V1008a3,3,0,0,1,.23-.48l0,0a7,7,0,0,1,.31-.69c.06-.16.15-.31.23-.48l.35-.73.07-.12c.14-.31.31-.65.46-1,.37-.79.77-1.57,1.14-2.36.07-.17.15-.31.23-.48.25-.48.48-1,.73-1.48s.44-.86.65-1.29c.44-.88.88-1.74,1.31-2.61.11-.21.21-.44.34-.65a3.48,3.48,0,0,1,.21-.44,1.55,1.55,0,0,0,.14-.29c0-.08.09-.19.15-.29h0s0,0,0,0c.29-.59.58-1.15.88-1.73.18-.38.39-.76.58-1.13.13-.19.21-.4.34-.61s.31-.6.45-.89l.5-.94c.32-.65.67-1.3,1-1.94.64-1.23,1.31-2.42,2-3.66l.29-.54.82-1.5c.27-.5.54-1,.83-1.5.54-1,1.11-2,1.69-3,1.67-2.94,3.36-5.86,5.11-8.8l2.65-4.41c.9-1.46,1.8-2.92,2.72-4.38.64-1,1.27-2,1.92-3a0,0,0,0,0,0,0c.29-.46.58-.92.87-1.36.92-1.46,1.88-2.94,2.86-4.4s1.94-2.95,2.94-4.41c2-3,4-5.88,6.12-8.82s4.23-5.87,6.42-8.79c4.16-5.53,8.41-11.22,12.82-16.94.79-1,1.58-2.07,2.4-3.11,1.83-2.36,3.69-4.72,5.55-7.08a3.12,3.12,0,0,1,.29-.37c.1-.13.21-.25.29-.38s.29-.33.44-.52.27-.33.42-.52l.81-1,.71-.88c.42-.48.79-1,1.19-1.46s.71-.85,1-1.27c.15-.17.29-.36.42-.5.9-1.11,1.79-2.19,2.69-3.28,1.3-1.52,2.59-3.05,3.88-4.57l3.07-3.5s0,0,0,0c.21-.22.42-.45.61-.68h0a1.47,1.47,0,0,1,.1-.13,1.2,1.2,0,0,1,.11-.12c.25-.28.48-.53.71-.8l2.79-3,0,0c.82-.9,1.65-1.78,2.49-2.68l0,0c1.16-1.21,2.33-2.44,3.52-3.65l.55-.54.52-.52c.73-.73,1.46-1.46,2.19-2.17.1-.11.21-.21.33-.32.52-.5,1-1,1.55-1.5.31-.31.64-.62,1-.94l0,0c.62-.6,1.29-1.23,1.94-1.79.79-.73,1.58-1.46,2.36-2.15.37-.31.73-.65,1.08-.94,1.23-1.09,2.48-2.15,3.72-3.17l1.75-1.42.52-.44,2.07-1.59c.85-.66,1.73-1.29,2.58-1.94.59-.41,1.15-.83,1.71-1.23,1.15-.79,2.3-1.58,3.43-2.31.58-.38,1.14-.75,1.71-1.11l.37-.23c1-.65,2-1.23,3-1.81h0c1.12-.65,2.25-1.28,3.36-1.86l1.69-.88c1.12-.56,2.23-1.08,3.34-1.6h0c1.1-.5,2.19-1,3.29-1.42h0c1.11-.46,2.2-.86,3.32-1.23a1.5,1.5,0,0,1,.34-.11l0,0,.75-.25.33-.1.23-.07c.36-.12.71-.25,1.07-.35a1.9,1.9,0,0,0,.39-.11l1-.29a5.18,5.18,0,0,1,.53-.14c.64-.19,1.27-.36,1.92-.5h0c.77-.21,1.5-.36,2.27-.53l.27,0c.34-.08.67-.14,1-.21a.39.39,0,0,0,.14,0c.38-.06.77-.12,1.17-.21.65-.1,1.27-.21,1.94-.27.44-.06.86-.12,1.25-.14s.65-.09.94-.11l.79-.06.8-.06.83-.07.82,0c.79,0,1.6-.06,2.4-.06h.06c.6,0,1.23,0,1.86,0s1.21.06,1.83.11l1.34.08c.44,0,.89.08,1.33.15l1.86.2,1.38.21a3.1,3.1,0,0,1,.5.09c.31,0,.6.08.92.14l1,.17a4.52,4.52,0,0,1,.68.15l.69.14a.32.32,0,0,1,.15,0,.47.47,0,0,1,.15,0c.68.17,1.39.32,2.08.48s1.27.32,1.9.5.92.23,1.38.38l.25.06c.73.21,1.46.44,2.17.67l1.42.48a3.93,3.93,0,0,1,.52.17,4,4,0,0,1,.52.18l1.65.61c.44.17.85.31,1.29.5.23.08.48.17.71.27l.07,0h0c.68.27,1.37.57,2.06.86.5.21,1,.44,1.48.67.63.29,1.28.58,1.9.89.9.44,1.8.88,2.67,1.34h0c.84.44,1.65.9,2.47,1.36h0a6,6,0,0,1,.6.33c.21.12.4.25.61.38s.69.39,1,.62.75.44,1.13.67.58.35.85.54.57.38.86.56.48.32.73.48l.71.51a5,5,0,0,1,.52.33l.4.27a7.42,7.42,0,0,1,.64.46l.15.12a9.93,9.93,0,0,1,.86.63c.48.33.93.69,1.39,1h0c.13.09.25.19.38.3.69.52,1.36,1.06,2,1.62s1.32,1.11,1.94,1.69c.23.19.46.4.69.61s.46.42.67.65h0c.56.52,1.11,1,1.65,1.58.31.32.61.63.94.94s.6.65.9,1a51.82,51.82,0,0,1,6.8,9.08,34.08,34.08,0,0,1,1.88,3.71,25,25,0,0,1,1.42,4.66,16.55,16.55,0,0,1,.2,2.14A5.38,5.38,0,0,1,1358.4,883.41Zm200.87,5.94c-1.07,0-2.13,0-3.2,0s-2.15,0-3.21.06c-2.17,0-4.34.12-6.55.21l-6.62.33c-1.12.06-2.25.15-3.38.23-3.38.23-6.8.5-10.24.84s-7,.71-10.48,1.14c-2.36.3-4.71.61-7.09.94l-3.57.52c-2.11.32-4.2.67-6.32,1l-6.39,1.14c-2.13.4-4.28.82-6.45,1.28s-4.32.92-6.49,1.39q-10.23,2.29-20.76,5.31c-1.25.35-2.48.7-3.73,1.08-2,.58-3.91,1.17-5.87,1.79-.48.13-1,.3-1.4.42-1.92.63-3.86,1.23-5.75,1.9l-2.22.75c-.73.25-1.46.5-2.19.77a.07.07,0,0,1-.06,0c-2.61.93-5.18,1.87-7.66,2.81h0c-.63.23-1.23.48-1.84.71l-1.1.44c-.23.08-.46.19-.69.27-.38.15-.75.31-1.15.44l-.58.23c-1.21.48-2.4,1-3.55,1.44l-2.32,1-1.69.69c-.77.31-1.52.62-2.23.94l-1.08.46-1.11.47-1.54.67c-.88.38-1.78.75-2.65,1.15l-1.24.56-.6.28c-.19.08-.36.14-.52.22l-.57.25a1.73,1.73,0,0,1-.33.17l-.29.13-.25.12a4.16,4.16,0,0,1-.61.25.48.48,0,0,1-.21.11l-.12.06-.06,0c-.3.13-.59.27-.86.42-1.81.81-3.65,1.71-5.45,2.61-3.44,1.64-6.88,3.4-10.28,5.19-4.53,2.4-9,4.91-13.48,7.49s-8.87,5.28-13.21,8.06v0c1-3.55,2.27-7.08,3.65-10.5.36-.85.69-1.67,1-2.46l.73-1.63c.71-1.54,1.42-3,2.13-4.32.32-.56.61-1.1.88-1.63,1.36-2.42,2.71-4.57,4-6.51.66-1,1.31-1.85,2-2.73.33-.44.65-.88,1-1.29.63-.84,1.27-1.63,1.9-2.42.33-.4.65-.8.94-1.17s.6-.75.92-1.13c1-1.27,2.08-2.57,3.13-3.9,1.18-1.52,2.37-3.13,3.48-4.84.33-.5.65-1,.92-1.51a40.18,40.18,0,0,0,3.3-6.63c.25-.63.48-1.27.68-1.94v0q.35-1.06.63-2.19c.19-.73.35-1.48.52-2.26,0,0,0-.06,0-.1.15-.75.27-1.55.38-2.34s.16-1.56.21-2.36a3.93,3.93,0,0,0,0-.48c.06-.75.08-1.5.08-2.29,0-.44,0-.88,0-1.32l-.06-1.08a2.82,2.82,0,0,0,0-.4,2,2,0,0,0,0-.41c-.06-1.07-.18-2.13-.33-3.18,0-.27-.06-.52-.1-.79-.09-.58-.19-1.19-.3-1.77-.16-.88-.35-1.74-.56-2.59a2.92,2.92,0,0,0-.1-.4,2.45,2.45,0,0,1-.11-.41c0-.11-.06-.23-.08-.36s-.08-.31-.13-.46l-.18-.71c0-.08,0-.16-.07-.25s-.1-.31-.14-.48a7.84,7.84,0,0,1-.27-.77c-.15-.44-.28-.86-.42-1.27-.06-.19-.13-.38-.21-.59s-.15-.37-.23-.56-.06-.17-.08-.25-.13-.31-.19-.48-.17-.5-.27-.73-.15-.36-.21-.5c-.29-.71-.61-1.46-.94-2.19s-.58-1.26-.9-1.88v0a4,4,0,0,0-.29-.59c-.1-.18-.19-.37-.31-.58s-.21-.4-.31-.61c-.23-.39-.46-.79-.67-1.19-.46-.83-.94-1.69-1.46-2.52-.34-.56-.69-1.13-1-1.67-.18-.27-.37-.56-.56-.83l-.81-1.24a0,0,0,0,0,0,0l-.9-1.23c-.34-.46-.67-.94-1-1.4s-.52-.68-.79-1a.07.07,0,0,0,0,0s0,0,0,0c-.21-.29-.44-.59-.67-.88l0,0,0,0a1,1,0,0,0-.17-.21l0,0v0a0,0,0,0,1,0,0c-.1-.15-.23-.29-.35-.44a3.47,3.47,0,0,0-.34-.42,2.56,2.56,0,0,0-.23-.27.2.2,0,0,1-.08-.1c-.31-.38-.63-.73-.94-1.11l0,0,0-.06c-.21-.25-.42-.48-.67-.75v0l-.4-.42s0,0,0,0,0,0,0,0c-.36-.37-.67-.75-1-1.12-19.47-21.08-49-35.23-77-36.94-2-.1-4-.16-6-.16-.79,0-1.54,0-2.34,0-.6,0-1.19,0-1.79.06h-.17l-1,.06h-.27l-.27,0c-.23,0-.46,0-.69,0l-.69.06q-1.12.06-2.25.18a.58.58,0,0,0-.23,0l-1.13.12-1,.13c-.77.08-1.57.18-2.34.31-.58.08-1.17.19-1.73.29-.29,0-.58.11-.88.15a4.37,4.37,0,0,0-.48.08c-.69.11-1.37.25-2,.4a0,0,0,0,0,0,0h0l0,0h-.14l-.15,0s-.08,0-.1,0a.16.16,0,0,0-.09,0,2,2,0,0,0-.35.09,2.59,2.59,0,0,0-.58.12h-.07l-1.12.25c-.38.11-.78.19-1.15.29l-.44.11c-.79.19-1.56.4-2.36.62-.37.11-.77.21-1.15.34s-.77.23-1.16.35a4.45,4.45,0,0,0-.65.19l-.21.06c-.27.09-.56.17-.83.28,0,0-.07,0-.09,0-.25.08-.48.14-.73.23.09-.19.19-.36.29-.53.21-.35.42-.71.61-1.06s.27-.48.42-.73l.56-.92a6.32,6.32,0,0,1,.33-.56,2,2,0,0,1,.19-.29c.09-.17.19-.32.27-.49l.19-.29a1.48,1.48,0,0,1,.13-.21.35.35,0,0,0,.08-.1c.06-.12.15-.27.23-.4s.35-.54.52-.83c.29-.46.56-.9.86-1.34.1-.18.23-.35.35-.54s.17-.27.25-.4.23-.37.36-.54a0,0,0,0,0,0,0l.19-.29c.06-.08.1-.19.16-.27s.25-.38.4-.57.25-.35.37-.54a0,0,0,0,0,0,0c.11-.14.19-.29.3-.44a4.73,4.73,0,0,1,.29-.44,1.11,1.11,0,0,1,.12-.16.43.43,0,0,1,.13-.17q.26-.4.54-.81c0-.07.11-.13.15-.19s.17-.27.25-.38c.94-1.33,1.92-2.65,2.92-4s2.17-2.82,3.34-4.2,2.25-2.71,3.44-4c.29-.34.59-.69.9-1,.1-.13.23-.25.33-.4l.59-.61c.58-.66,1.21-1.31,1.83-2s1.17-1.21,1.8-1.83c.31-.32.62-.63.94-.92s.6-.61.91-.9c.67-.65,1.34-1.27,2-1.9.31-.31.62-.58,1-.87.71-.65,1.38-1.28,2.11-1.9s1.44-1.23,2.17-1.84c.06-.06.12-.1.18-.17l.4-.31c.15-.1.27-.21.4-.31l.06-.06s0,0,0-.07h0c.31-.27.65-.52,1-.77l.54-.42a4.12,4.12,0,0,1,.4-.33,4,4,0,0,1,.42-.33.87.87,0,0,1,.21-.15s0,0,.06,0,0,0,.06-.06c.4-.32.8-.61,1.21-.92l0,0,.07-.07s0,0,.06,0l.06,0v0l.08,0c.46-.36.9-.67,1.36-1l.25-.17s0-.07.09-.07l.93-.68c.34-.25.67-.48,1-.71a4.27,4.27,0,0,1,.41-.29l.44-.32c.15-.08.29-.19.44-.29l0,0a0,0,0,0,0,0,0l1.73-1.15c.74-.5,1.49-1,2.24-1.46.58-.38,1.17-.73,1.75-1.06s1.17-.69,1.75-1c.3-.19.59-.35.88-.52a0,0,0,0,1,0,0l.88-.5c.21-.13.44-.25.64-.36l1.15-.62c.79-.44,1.61-.88,2.42-1.3s1.61-.83,2.42-1.23h0c.23-.12.48-.25.71-.35s.63-.31.94-.46l.82-.38a8,8,0,0,1,.85-.39c.56-.27,1.15-.54,1.73-.8,1.28-.56,2.53-1.08,3.8-1.6a1.58,1.58,0,0,1,.38-.15.65.65,0,0,1,.25-.1,1.12,1.12,0,0,1,.25-.11l.81-.33c.81-.33,1.63-.65,2.46-.94,1.63-.61,3.26-1.19,4.93-1.71l2.65-.86h0l2.34-.68c.68-.21,1.37-.4,2.06-.59.11,0,.19,0,.29-.08s.36-.11.55-.15.21,0,.31-.08l.75-.19a.78.78,0,0,0,.21,0,5.44,5.44,0,0,1,.54-.15c.27-.08.54-.14.82-.21a1.82,1.82,0,0,1,.29-.08,8.76,8.76,0,0,1,1-.25c1-.23,1.92-.46,2.9-.67a1,1,0,0,1,.34-.06l.25-.06a4.36,4.36,0,0,1,.52-.11l1.06-.23c.34-.08.71-.14,1-.21.88-.18,1.78-.35,2.68-.5.41-.08.81-.14,1.23-.23l3.17-.52a.58.58,0,0,1,.19,0q2.22-.35,4.44-.63c.61-.08,1.21-.14,1.8-.2h.08l.31,0a.06.06,0,0,1,.06,0s0,0,.05,0h.06a1.53,1.53,0,0,1,.44-.07l2.52-.25.21,0c1-.08,1.88-.17,2.82-.23.48,0,1-.08,1.44-.1l1.37-.09c.55,0,1.11-.06,1.65-.08.23,0,.44,0,.67,0s.44,0,.67,0l2-.09c.54,0,1.06-.06,1.59-.06s1.06,0,1.6,0l1.44,0c.44,0,.84,0,1.28,0h.31c1.17,0,2.34,0,3.5,0,.32,0,.65,0,1,0h.89l.69,0,.73,0,.4,0,2.54.11c.82,0,1.63.08,2.45.14h.41a1.16,1.16,0,0,1,.32,0c.81,0,1.6.1,2.4.16h0l4.36.36,3.65.37c.4,0,.79.09,1.19.15,1,.1,2,.23,3.07.37,2.19.28,4.38.59,6.59.94s4.51.75,6.78,1.17c1.86.36,3.74.71,5.61,1.13,1.22.25,2.4.5,3.61.77.34.08.69.17,1,.23l3.69.88c1.61.39,3.19.81,4.8,1.23s3.21.85,4.82,1.31c1.38.4,2.78.8,4.15,1.21s2.49.75,3.72,1.15,2.58.81,3.88,1.25,2.5.84,3.75,1.25c3.34,1.15,6.64,2.36,9.94,3.64,2.27.87,4.52,1.77,6.78,2.69l3.38,1.42c1.13.46,2.25,1,3.36,1.46,3.36,1.46,6.68,3,10,4.59,3.53,1.71,7,3.48,10.44,5.3,1.29.66,2.56,1.35,3.84,2.08s2.56,1.42,3.82,2.13l3.79,2.19c1.25.73,2.51,1.49,3.74,2.24,3.29,2,6.55,4.09,9.74,6.19,4.43,3,8.75,6,12.92,9.14.71.57,1.42,1.11,2.13,1.65,1.88,1.42,3.71,2.88,5.51,4.36s3.56,3,5.32,4.47,3.46,3.05,5.13,4.59c2,1.88,4,3.76,6,5.72h0c1.13,1.1,2.27,2.23,3.4,3.42q2.19,2.28,4.32,4.59l.9,1c1.06,1.17,2.13,2.34,3.11,3.55.39.44.79.88,1.12,1.31.57.65,1.11,1.28,1.63,1.92s1,1.26,1.55,1.9l.87,1.07c1.13,1.42,2.26,2.83,3.36,4.3a1.66,1.66,0,0,0,.13.14,1.25,1.25,0,0,1,.12.17,2.64,2.64,0,0,1,.21.29c1,1.32,2,2.65,3,4l.46.6c.25.36.52.73.77,1.11,1,1.46,2.07,2.94,3.07,4.42a2.65,2.65,0,0,1,.27.42c.38.52.73,1.08,1.11,1.63l.69,1.06c.6.9,1.19,1.82,1.75,2.73,1.13,1.8,2.23,3.59,3.3,5.41s2.15,3.63,3.19,5.47v0c1,1.73,1.9,3.46,2.84,5.21s1.83,3.53,2.73,5.32c.61,1.19,1.19,2.38,1.75,3.59s1.24,2.59,1.82,3.9c.1.28.23.57.35.84a1.73,1.73,0,0,1,.17.33c.52,1.13,1,2.24,1.48,3.36.23.48.42.92.61,1.4h0v0c.31.82.67,1.59,1,2.4s.69,1.65,1,2.46.65,1.63.94,2.47h0a1.22,1.22,0,0,1,.17.37A385.62,385.62,0,0,0,1559.27,889.35Z"/><path class="cls-2" d="M1473.6,535.23c-2.39,43.58-15.93,107.54-67.91,159.23-2.16,2.16-4.41,4.28-6.7,6.35l-1.45,0c-1.3,0-2.62-.09-3.93-.12-1.5,0-3,0-4.51,0-1.27,0-2.55,0-3.83,0-.77,0-1.54,0-2.3,0-1.1,0-2.17.07-3.25.1l-1.11.05c-1.43.07-2.87.15-4.3.24l-.78,0c-1.27.09-2.55.18-3.8.3l-.64.05h0q-1.89-1.5-3.77-2.94-14.58-11.37-28.7-21.49c-1.24-.88-2.47-1.78-3.7-2.64-3.7-2.64-7.35-5.2-11-7.71-1.2-.85-2.41-1.66-3.62-2.5a5.14,5.14,0,0,1-.44-.31c-2.26-1.54-4.5-3.06-6.73-4.54q-5.89-4-11.67-7.73l-5.82-3.75c-1.15-.74-2.29-1.45-3.43-2.19l-3.39-2.13-3.37-2.11-6.64-4.09c-1.09-.68-2.18-1.35-3.28-2-2.18-1.33-4.33-2.62-6.47-3.88-3.2-1.89-6.34-3.75-9.44-5.53l-3.08-1.77q-2.57-1.5-5.09-2.89c-1-.55-2-1.09-2.92-1.65-1.33-.73-2.67-1.46-4-2.2l-4.58-2.51c-1.35-.75-2.69-1.46-4-2.17q-2.81-1.51-5.54-3l-5.37-2.8-5.2-2.68q-5.1-2.58-9.88-4.94l-.75-.37c-3.7-1.81-7.22-3.49-10.56-5.07l-2.11-1-2.07-1c-2.08-1-4.1-1.87-6-2.75l-3.52-1.57c-.6-.28-1.19-.52-1.76-.78-37-16.22-83.77-36.78-143.37-49.89q-3.88-.86-7.84-1.67-5.94-1.22-12.05-2.33t-12.37-2.1q-4.18-.66-8.45-1.27c-2.83-.41-5.7-.8-8.59-1.16q-13-1.66-26.71-2.74c-.93-.06-1.86-.15-2.78-.19a2.71,2.71,0,0,1-.4,0c-.94-.08-1.89-.14-2.83-.21l-1.39-.08c-.73-.07-1.45-.11-2.18-.15l-2.61-.16c-.85,0-1.68-.1-2.51-.13l-1.81-.1c-1.81-.1-3.62-.18-5.42-.24-2.38-.1-4.76-.18-7.1-.25h-.07c-3.75-.11-7.45-.18-11.12-.21a587.19,587.19,0,0,0-58.79,2.4c-1.11.1-2.2.19-3.28.31-2.17.19-4.32.42-6.42.65-3.18.34-6.31.7-9.36,1.09s-6.07.77-9,1.19q-7.37,1-14.2,2.17c-2.74.44-5.43.91-8.06,1.39s-5.1.93-7.56,1.41h0c-1.64.31-3.24.64-4.82,1-8.74,1.76-16.57,3.57-23.4,5.25l-3.6.91c-8.23,2.09-14.82,4-19.6,5.32-2.44.68-4.89,1.4-7.32,2.11l-7.34,2.21c-2.44.73-4.87,1.5-7.3,2.28s-4.86,1.55-7.29,2.36-4.65,1.52-7,2.33a3.81,3.81,0,0,0-.44.15c-2.38.78-4.76,1.62-7.13,2.46s-4.82,1.7-7.24,2.6q-4.51,1.63-9,3.34c-3,1.14-6,2.28-9,3.47s-6,2.36-8.95,3.59-6,2.46-8.92,3.71q-7.11,3-14.2,6.18l-5.18,2.35c-.59.28-1.17.54-1.75.8a.56.56,0,0,0-.13.07l-.19.08c-.33.16-.65.31-1,.45l-.6.28c-1.16.52-2.32,1.08-3.49,1.63-.59.3-1.19.57-1.78.85l-1.73.81a.55.55,0,0,0-.19.09c-.2.11-.41.19-.61.29a3.92,3.92,0,0,1-.36.16l-2.15,1.05-1.73.83a11.2,11.2,0,0,0-1.1.54c-.4.18-.77.35-1.15.55-1.3.62-2.6,1.27-3.89,1.91l-1.11.55c-1.18.57-2.33,1.16-3.49,1.76l-3.49,1.76q-3.46,1.77-7,3.59c-1.58.8-3.14,1.63-4.71,2.5-1,.48-1.94,1-2.9,1.53-2.07,1.09-4.14,2.22-6.21,3.37-1.86,1-3.7,2-5.54,3.07-.69.36-1.37.75-2.06,1.14-2,1.14-4.09,2.3-6.13,3.49-2.25,1.29-4.5,2.59-6.75,3.93a.21.21,0,0,0-.16.1c-1.86,1.06-3.7,2.16-5.56,3.27l-2,1.19q-6.14,3.68-12.21,7.49c-3.18,2-6.34,4-9.49,6.05-1.47.94-2.93,1.89-4.4,2.85q-3.33,2.17-6.65,4.4c-2.22,1.47-4.44,3-6.64,4.48a677.45,677.45,0,0,1-83-143.52c-16.72-39.56-33.82-80-39-123.93A214.87,214.87,0,0,1,410,313.83c2.33-10.74,5.64-26.09,12.62-42a130.48,130.48,0,0,1,6.48-13c.58-1,1.19-2,1.79-3,1.24-2,2.54-4,3.93-6,.68-1,1.4-2,2.13-3,.36-.49.74-1,1.11-1.47q2.84-3.68,6.05-7.19c.42-.47.87-.93,1.31-1.4s.89-.93,1.35-1.39a104.38,104.38,0,0,1,12-10.48c26.08-19.45,53.91-22,67.32-23.16a161.9,161.9,0,0,1,58.5,5.7c27.84,7.79,51.47,21.63,68.88,34.36a23.25,23.25,0,0,0,34.91-28.32,152.91,152.91,0,0,1-9.52-28.4c-.75-3.24-1.37-6.5-1.91-9.78-2.67-16.79-7.71-48.07,9.81-81.49,4.6-8.8,22.47-38.72,59-53,24.85-9.72,46.3-7.27,69-4.71,59.53,6.78,101.81,35.74,117.72,46.63,13,8.92,46.75,34.37,77.43,77.49,6,8.45,11.64,17.22,16.86,26.22a334,334,0,0,1,17,33.67,23.25,23.25,0,0,0,44.28-5.66,81.07,81.07,0,0,1,3.29-13.26c.59-1.72,1.24-3.45,1.94-5.13,4.08-9.72,13.91-27.69,34.06-38.94s44.94-12.49,71.33-3.37a94.79,94.79,0,0,1,36.41,23.15,164.52,164.52,0,0,1,21.08,26.61c1,1.52,2,3,2.92,4.52,1.91,3,3.74,5.93,5.5,8.78A201.93,201.93,0,0,1,1289.74,279c1.69,7.48,2.8,14,3.67,19.11a262.78,262.78,0,0,1,2.79,65.51,23.25,23.25,0,0,0,40.74,17.15,50,50,0,0,1,11.85-10.13c23.06-14.08,57.87-.13,58.21,0,32.31,13.63,54.08,52.1,64.66,114.36C1472,487,1475.18,506.78,1473.6,535.23Z"/><path class="cls-2" d="M1481.22,1412.52c-.08.46-.19.94-.29,1.4a209.13,209.13,0,0,1-5.78,21.2c-.4,1.21-.81,2.44-1.25,3.65q-2,5.52-4.24,11c-1,2.44-2.11,4.86-3.23,7.3-1.71,3.68-3.57,7.31-5.55,10.94-1.34,2.42-2.72,4.84-4.16,7.24-.73,1.21-1.48,2.42-2.23,3.61a0,0,0,0,0,0,0h0a231,231,0,0,1-19.39,26.29c-2.73,3.19-5.65,6.43-8.76,9.68-20.8,21.62-50.39,43.36-89.81,52.23-2.27.52-4.68,1-7.14,1.44l-2.46.44c-2.23.36-4.47.69-6.7.94s-4.27.48-6.4.65a2.39,2.39,0,0,1-.53.06h0a.65.65,0,0,0-.19,0l-2.33.15c-.42,0-.84.06-1.27.08l-1.26.06c-.5,0-1,.06-1.48.06l-1.48.07h-.33a.59.59,0,0,1-.17,0h-.19c-1.5,0-3,.06-4.51.06-1.12,0-2.23,0-3.35,0h-.19c-.8,0-1.61,0-2.4-.06l-3-.13c-1-.06-2-.12-3-.21-.81,0-1.65-.1-2.48-.16l-2.46-.26h0a2.1,2.1,0,0,1-.37,0c-.69-.06-1.38-.14-2.09-.23a1.1,1.1,0,0,1-.25,0h0a.79.79,0,0,1-.23,0c-.67-.06-1.31-.15-2-.23-.44-.06-.86-.1-1.29-.17l-.69-.12a1,1,0,0,1-.25,0h0a.73.73,0,0,1-.23,0l-1.51-.23-.48-.07c-.14,0-.31,0-.48-.08l-.08,0c-.31,0-.61-.08-.92-.15l-.12,0a12.41,12.41,0,0,1-1.38-.23c-.84-.12-1.65-.29-2.48-.46-1-.18-1.92-.35-2.86-.56-.36-.08-.73-.17-1.11-.23-1.27-.27-2.54-.56-3.82-.87-.29-.09-.58-.15-.87-.21l-1.78-.44-.44-.11-1-.27c-1.33-.33-2.67-.69-4-1.08a4.61,4.61,0,0,0-.46-.13,4.1,4.1,0,0,1-.5-.14c-.17,0-.34-.09-.5-.15-.44-.12-.88-.25-1.3-.4s-1-.31-1.58-.48c-1.13-.35-2.3-.73-3.45-1.1-.33-.13-.66-.23-1-.34-1-.35-2.06-.71-3.09-1.08l-1.1-.4c-.71-.25-1.42-.52-2.13-.79-.08,0-.17-.06-.27-.1a.58.58,0,0,0-.23-.09.78.78,0,0,1-.23-.08l-2.88-1.13c-1.9-.77-3.82-1.56-5.74-2.4-1-.42-1.92-.83-2.88-1.27q-4.32-2-8.59-4.11h0c-1.9-1-3.79-2-5.69-3-1-.5-1.92-1-2.86-1.56-.5-.27-1-.54-1.5-.84s-1-.56-1.46-.85l-1.3-.75-1-.63c-.44-.25-.88-.5-1.29-.77l-1.28-.79-.94-.59-.94-.6c-.2-.13-.41-.25-.62-.4s-.73-.46-1.07-.69l-1.06-.71-.31-.19c-.32-.22-.67-.45-1-.68l-1.4-.94c-.4-.27-.82-.57-1.21-.86-.75-.52-1.48-1-2.21-1.58l-1.55-1.13c-.41-.29-.81-.61-1.23-.92-.21-.15-.39-.31-.6-.46a.28.28,0,0,1-.11-.08c-.56-.44-1.15-.88-1.69-1.32h0c-1.88-1.48-3.67-2.94-5.42-4.44-.4-.31-.78-.65-1.17-1l-1.15-1-1.84-1.63q-1.82-1.63-3.56-3.3l-1.74-1.67c-.16-.16-.35-.33-.52-.52l-.54-.5-.5-.52h0c-1-1-2-2-3-3-.25-.25-.48-.52-.73-.77s-.48-.52-.71-.77c-.48-.5-1-1-1.42-1.52l-1.39-1.55c-.94-1-1.86-2-2.76-3.07l-2.63-3.1c-.81-1-1.62-2-2.4-3-.16-.21-.33-.41-.5-.6l-.79-1v0a.91.91,0,0,1-.1-.13,2.52,2.52,0,0,1-.3-.35,2.2,2.2,0,0,1-.18-.28c-.61-.75-1.19-1.5-1.76-2.25-1.44-1.86-2.81-3.71-4.17-5.59-.29-.42-.58-.84-.9-1.25s-.58-.86-.87-1.28l-.38-.52-.37-.52c-.13-.19-.26-.37-.38-.56-.25-.38-.52-.73-.77-1.09l-.73-1.1c-.23-.32-.44-.65-.67-1s-.44-.67-.67-1-.52-.81-.81-1.21-.38-.58-.59-.87l-1.5-2.36c-1.13-1.71-2.19-3.4-3.25-5.11-.38-.61-.76-1.21-1.13-1.82-.65-1-1.3-2.08-1.9-3.11-.21-.33-.4-.62-.58-1s-.28-.43-.4-.66l-.15-.23a1.83,1.83,0,0,1-.14-.28,2.61,2.61,0,0,1-.19-.27l-.08-.14s0,0-.05-.07a.07.07,0,0,0,0-.06c-.08-.12-.14-.23-.23-.35-1.21-2-2.37-4-3.54-6s-2.3-3.92-3.41-5.84c-.31-.55-.62-1.09-.93-1.61-.38-.67-.78-1.34-1.15-2s-.69-1.28-1-1.9-.77-1.36-1.14-2c-.25-.44-.5-.9-.73-1.35l-.38-.67v0a1.88,1.88,0,0,0-.25-.46c-.14-.27-.29-.54-.44-.84-.25-.46-.5-.94-.75-1.42-.83-1.58-1.65-3.15-2.44-4.71s-1.57-3.15-2.32-4.72l-.12-.25-.13-.27c-.23-.48-.46-1-.71-1.44v-.06c-.71-1.48-1.39-3-2.08-4.45-.07-.14-.13-.27-.19-.41s-.13-.3-.19-.44-.21-.48-.33-.71l-.32-.73c-.06-.15-.14-.29-.2-.46s-.15-.33-.21-.5a5.15,5.15,0,0,1-.27-.59v0s0-.06,0-.08l0-.1-.06-.15c-.06-.13-.1-.25-.17-.38-.35-.83-.71-1.64-1-2.46a5,5,0,0,1-.21-.48l-.06-.12-.06-.15-.82-1.9-.92-2.29c-.18-.44-.37-.88-.54-1.3s-.33-.87-.5-1.31c-.65-1.61-1.27-3.22-1.88-4.82-.29-.8-.6-1.59-.89-2.38s-.59-1.59-.88-2.38v0q-1.29-3.57-2.44-7c-.25-.8-.52-1.57-.77-2.34-.51-1.54-1-3-1.47-4.57v0c-.45-1.52-.91-3-1.37-4.53-1.11-3.76-2.11-7.43-3.05-11l-.81-3.21c-.09-.36-.17-.71-.25-1.07-.17-.7-.36-1.41-.52-2.1s-.36-1.4-.51-2.09c-.08-.44-.2-.83-.29-1.25-.23-1-.44-1.92-.64-2.86-.3-1.36-.59-2.71-.88-4s-.54-2.65-.79-3.94c-.11-.44-.19-.86-.28-1.27s-.18-.88-.27-1.3-.14-.85-.23-1.27c-.18-1-.37-2-.54-2.9l-.06-.32c0-.12,0-.22,0-.33s0-.1,0-.14c-.13-.65-.23-1.28-.34-1.88s-.23-1.25-.33-1.88c-.21-1.15-.42-2.32-.61-3.44s-.35-2.26-.54-3.36a.78.78,0,0,1,0-.21c-.15-.94-.29-1.84-.44-2.74s-.27-1.79-.42-2.69c-.08-.6-.18-1.19-.27-1.79-.25-1.78-.52-3.53-.75-5.2a.72.72,0,0,0,0-.19.55.55,0,0,0,0-.18c-.06-.42-.13-.84-.19-1.28v0c-.06-.54-.15-1.06-.23-1.6a423.5,423.5,0,0,1-3.8-80.55c.13-2.19.23-4.36.36-6.49.06-1.08.14-2.13.21-3.19s.14-2.09.23-3.13.16-2.09.25-3.11.19-2,.27-3.05.14-1.79.25-2.67c.1-1.1.21-2.21.33-3.3q.09-.78.15-1.56c0-.06,0-.1,0-.17s0-.1,0-.16c.06-.5.11-1,.17-1.55s.08-.81.14-1.21.09-.94.15-1.4c.08-.77.17-1.5.25-2.25a.27.27,0,0,0,0-.13v0a.74.74,0,0,1,0-.18c.11-.82.21-1.63.29-2.45a4.11,4.11,0,0,0,.09-.64c.1-.82.21-1.63.31-2.44s.23-1.82.36-2.72c.2-1.64.43-3.29.68-4.9a1.34,1.34,0,0,1,0-.35c0-.17,0-.34.06-.48.33-2.43.71-4.76,1.06-7.08.34-2.15.67-4.23,1-6.28,0-.08,0-.19,0-.27l.06-.36.06-.25c.13-.77.23-1.54.38-2.31.08-.48.14-1,.23-1.44s.14-1,.22-1.44a1.6,1.6,0,0,0,0-.21c.06-.46.14-.9.23-1.36.1-.71.23-1.44.35-2.15s.19-1.14.27-1.75l.06-.25c0-.35.11-.69.17-1s.13-.69.19-1.07.15-.87.21-1.33c0-.27.1-.57.14-.84.19-1.08.4-2.23.59-3.38s.42-2.38.63-3.59c.14-.81.29-1.64.41-2.48.06-.42.15-.85.23-1.27l.13-.75c0-.17.06-.36.1-.55.19-1,.38-2.08.59-3.17.12-.71.27-1.42.41-2.13.09-.46.17-.91.25-1.37s.17-.92.27-1.38c0-.29.09-.58.15-.88,0,0,0-.06,0-.08a.07.07,0,0,1,0-.06l.13-.65s0-.06,0-.1c.14-.84.31-1.67.48-2.51.1-.5.21-1,.31-1.46s.19-1,.29-1.46.19-1,.3-1.48.2-1,.31-1.52c0-.17.06-.32.1-.48.29-1.34.61-2.72.88-4.11.46-2.07.94-4.2,1.42-6.35,0-.14.06-.27.08-.39a3.63,3.63,0,0,1,.11-.42c.08-.4.16-.8.27-1.21s.18-.82.29-1.23c.48-2,1-4,1.44-6,.06-.21.1-.44.17-.67.56-2.26,1.14-4.55,1.75-6.89.14-.58.29-1.17.46-1.75s.31-1.17.48-1.77c.31-1.19.62-2.36.94-3.57s.67-2.42,1-3.63c.1-.34.19-.69.29-1,.5-1.73,1-3.48,1.53-5.25.1-.36.2-.73.31-1.11s.27-.88.39-1.31c.88-2.86,1.76-5.76,2.7-8.71.14-.46.29-.91.43-1.37.42-1.28.84-2.57,1.28-3.88l.12-.38c.4-1.17.8-2.36,1.19-3.53.23-.64.44-1.29.65-2l0,0h0c.21-.65.44-1.31.67-2,.81-2.32,1.63-4.65,2.48-7,.13-.34.23-.67.38-1l.06-.19c.17-.44.31-.88.5-1.32.29-.85.61-1.69.94-2.52s.5-1.38.77-2.07l.06-.19a1,1,0,0,0,.11-.2.28.28,0,0,1,0-.13.07.07,0,0,0,0-.06.07.07,0,0,1,0-.06c0-.09.06-.19.11-.28a.07.07,0,0,0,0,0c.06-.14.1-.31.16-.46a2.66,2.66,0,0,0,.19-.52.15.15,0,0,0,0-.1s0-.06,0-.11c.11-.27.23-.58.36-.87a4.37,4.37,0,0,1,.21-.57c0-.12.1-.23.14-.35.3-.73.57-1.48.88-2.19.38-1,.79-2,1.19-3,.15-.39.29-.79.46-1.16a.3.3,0,0,1,0-.11c.54-1.33,1.11-2.69,1.67-4.07,1.19-2.79,2.38-5.59,3.61-8.41.63-1.4,1.25-2.81,1.9-4.23s1.27-2.84,1.94-4.26a4.69,4.69,0,0,1,.21-.48,2.33,2.33,0,0,1,.1-.27l.07-.13c.33-.66.64-1.33,1-2,.14-.27.25-.52.37-.79,0,0,0,0,0-.07s0,0,0,0c.07-.16.15-.31.21-.48l0,0c.09-.23.21-.46.32-.69a4.15,4.15,0,0,1,.23-.48c.12-.25.22-.48.35-.73l.08-.12c.5-1.11,1-2.24,1.59-3.32a5.24,5.24,0,0,1,.23-.48c.25-.48.48-1,.73-1.48s.44-.86.65-1.3c.43-.87.87-1.73,1.31-2.6.11-.21.21-.44.33-.65s.15-.29.23-.44.09-.19.13-.29a1.22,1.22,0,0,1,.17-.29s0,0,0,0c.29-.58.58-1.14.87-1.73.21-.37.4-.75.61-1.12l.31-.61.46-.9.5-.94c.34-.66.67-1.31,1-1.94.67-1.23,1.32-2.44,2-3.65.1-.19.18-.35.29-.54l.81-1.5c.3-.5.57-1,.86-1.5.54-1,1.1-2,1.67-3,1.67-2.94,3.36-5.86,5.11-8.81.88-1.46,1.75-2.92,2.65-4.4s1.82-2.92,2.73-4.38c.63-1,1.28-2,1.9-3a0,0,0,0,0,0,0c.3-.46.59-.92.88-1.35q1.41-2.22,2.88-4.41c1-1.48,1.94-2.94,2.92-4.4,2-3,4-5.88,6.11-8.83s4.24-5.86,6.43-8.78c4.15-5.53,8.41-11.23,12.81-16.94l2.4-3.11c1.84-2.36,3.7-4.72,5.55-7.08.09-.12.19-.25.3-.37a2.43,2.43,0,0,1,.31-.38l.42-.52c.14-.17.27-.33.41-.52.28-.34.55-.67.82-1s.48-.59.71-.88c.41-.48.79-1,1.19-1.46s.71-.86,1-1.27c.15-.17.29-.36.42-.5.89-1.11,1.79-2.2,2.69-3.28l3.88-4.57,3.07-3.51a0,0,0,0,0,0,0h0c.21-.23.4-.46.6-.69a1.2,1.2,0,0,0,.11-.12.38.38,0,0,1,.12-.13c.23-.27.46-.52.71-.79.92-1,1.84-2,2.78-3.05l0,0c.81-.89,1.65-1.77,2.48-2.67l0,0c1.17-1.21,2.34-2.44,3.53-3.65l.54-.54.52-.52c.73-.73,1.47-1.46,2.2-2.17a3.37,3.37,0,0,1,.33-.32c.52-.5,1-1,1.54-1.5l1-.94,0,0c.64-.6,1.27-1.19,1.93-1.79s1.59-1.46,2.36-2.15c.38-.32.73-.65,1.09-.94,1.23-1.09,2.48-2.15,3.71-3.17l1.76-1.42c.16-.15.35-.3.52-.44.69-.52,1.37-1.07,2.06-1.59.86-.67,1.74-1.29,2.59-1.94l1.71-1.23,3.42-2.32c.59-.37,1.15-.75,1.71-1.1l.38-.23,3-1.82s0,0,0,0c1.12-.62,2.25-1.27,3.35-1.85l1.7-.88c1.12-.56,2.23-1.08,3.33-1.61h0c1.11-.5,2.19-1,3.3-1.42h0c1.11-.45,2.19-.85,3.32-1.23.1,0,.23-.08.33-.1l0,0,.76-.25a2.55,2.55,0,0,0,.33-.11l.23-.06c.35-.12.71-.25,1.06-.35a2.62,2.62,0,0,0,.4-.11c.33-.1.67-.21,1-.29.17-.06.36-.1.52-.15.65-.18,1.28-.35,1.92-.5h0c.78-.21,1.51-.35,2.28-.52l.27,0q.49-.12,1-.21a.44.44,0,0,0,.15,0l1.17-.21c.64-.1,1.29-.19,1.94-.27.44-.06.85-.13,1.25-.15s.65-.08.94-.1l.79-.06.8-.07.83-.06.81,0c.8,0,1.61-.06,2.4-.06h.07c.6,0,1.23,0,1.85,0l1.84.1c.44,0,.88.07,1.33.09s.9.08,1.34.14c.6.07,1.23.15,1.86.21.46.06.91.13,1.37.21a4,4,0,0,1,.5.08l.92.15c.32.06.63.1,1,.17a7,7,0,0,1,.69.14l.69.15a.36.36,0,0,1,.15,0,.39.39,0,0,1,.14,0c.69.17,1.4.31,2.09.48s1.27.31,1.9.5.92.23,1.38.38l.25.06c.73.21,1.46.44,2.17.67.46.14.94.31,1.41.48a5.34,5.34,0,0,1,.53.16c.18.05.35.13.52.19l1.65.61c.44.16.85.31,1.29.5l.77.31h0c.69.27,1.38.56,2.07.86.5.21,1,.43,1.48.66.63.3,1.27.59,1.9.9.9.44,1.79.88,2.67,1.34h0c.84.44,1.65.89,2.46,1.35h0c.21.11.4.21.61.34l.6.37q.51.28,1.05.63l1.13.67a9.38,9.38,0,0,1,.85.54c.27.19.56.37.86.56s.48.32.73.48l.71.5c.16.11.35.21.52.34s.25.16.39.27a5.87,5.87,0,0,1,.65.46.65.65,0,0,0,.15.12,8.48,8.48,0,0,1,.85.63c.48.33.94.69,1.4,1h0l.38.29c.69.53,1.35,1.07,2,1.63s1.32,1.11,1.94,1.69c.23.19.46.4.69.61s.46.41.67.64h0c.56.53,1.1,1,1.65,1.59.31.31.6.63.94.94l.89,1a51,51,0,0,1,6.81,9.08,34,34,0,0,1,1.87,3.71,23.69,23.69,0,0,1,1.42,4.65,15,15,0,0,1,.21,2.15,5.54,5.54,0,0,1-.29,2.24,1.59,1.59,0,0,1-.17.39,7.54,7.54,0,0,1-.46.88A65.71,65.71,0,0,1,1353,891c-5.76,7-13.63,16.69-20.64,33.91-.9,2.19-1.73,4.4-2.51,6.63A143,143,0,0,0,1325,948.8a158.4,158.4,0,0,0-3.4,35.64l0,1.69c0,.88,0,1.76.09,2.59v.46c0,.21,0,.44,0,.67s0,.46,0,.66v.42c0,.44,0,.88.08,1.3s0,.85.07,1.27.06,1.15.1,1.69l.13,1.63.06.68c0,.23,0,.48.06.69s0,.46.06.67a4.8,4.8,0,0,0,0,.67c0,.44.08.88.12,1.29s.11,1,.15,1.55c.14,1.52.29,2.94.44,4.27s.29,2.59.45,3.86v0c.13,1.06.26,2.1.42,3.13s.34,2.19.5,3.25c.23,1.42.48,2.82.75,4.22.78,4.17,1.67,8.2,2.68,12.12l.81,3.09c.23.77.44,1.54.65,2.29s.43,1.48.66,2.24c.05.16.11.35.17.52.27.94.56,1.88.88,2.79.1.36.21.73.33,1.09s.29.83.42,1.23.25.81.39,1.21c.55,1.56,1.09,3.11,1.65,4.59.3.79.59,1.57.9,2.34l.56,1.42c.17.48.36.94.55,1.39,0,0,0,.07,0,.11.25.58.48,1.17.73,1.75s.48,1.17.73,1.73l.75,1.76c.25.58.5,1.17.75,1.73.17.35.31.69.48,1s.31.69.48,1c.4.88.79,1.74,1.19,2.59s.77,1.67,1.19,2.48.75,1.53,1.15,2.28.73,1.5,1.1,2.23a1.81,1.81,0,0,1,.17.29c.4.78.79,1.51,1.17,2.24s.79,1.46,1.17,2.19l.62,1.15c.21.39.42.77.61,1.14.31.55.62,1.11.94,1.65s.58,1.05.85,1.57c.65,1.1,1.25,2.19,1.86,3.25.4.69.79,1.36,1.17,2s.77,1.33,1.17,2l.18.31v0l2,3.42q1.85,3.13,3.69,6.08c.82,1.31,1.63,2.58,2.44,3.84s1.61,2.46,2.4,3.65,1.61,2.36,2.4,3.5,1.57,2.26,2.36,3.34a354.89,354.89,0,0,0,22.41,27.86l2.59,3,2.48,2.92a423.46,423.46,0,0,1,26.29,34.33c3.32,4.84,6.47,9.6,9.39,14.25,2,3.09,3.84,6.14,5.66,9.12,4.51,7.49,8.51,14.61,12,21.18,1,2,2,3.88,3,5.74v0c1,1.86,1.88,3.67,2.76,5.4,0,0,0,0,0,0,7,14,11.2,24.27,12.77,28.22C1472.64,1278.77,1496,1342.2,1481.22,1412.52Z"/><path class="cls-3" d="M1418.29,1740.15v0q-7.08,6.39-14.27,12.63t-14.55,12.29q-14.7,12.14-29.92,23.64c-2.55,1.92-5.09,3.82-7.66,5.7-5.11,3.75-10.29,7.49-15.48,11.14l0,0q-11.72,8.21-23.71,16.07c-8,5.21-16.08,10.33-24.26,15.27-2.74,1.67-5.47,3.32-8.25,5q-20.6,12.18-41.92,23.2a0,0,0,0,1,0,0q-8.55,4.41-17.15,8.64l0,0q-21.6,10.52-43.86,19.91-4.46,1.88-9,3.71-17.9,7.26-36.2,13.75-9.16,3.25-18.4,6.29-31.25,10.26-63.5,18.11c-1.53.39-3.07.75-4.59,1.1-4.93,1.19-9.85,2.32-14.82,3.38q-6.82,1.52-13.71,2.88c-4.8,1-9.64,1.9-14.48,2.78-2,.37-4,.73-5.95,1.06-5,.9-10.05,1.74-15.1,2.53l-3,.48q-12.93,2-26,3.57a855.8,855.8,0,0,1-103.23,6.24c-236.25,0-450.26-97-604.36-253.2-3.38-3.42-6.74-6.89-10.08-10.37q-10-10.49-19.61-21.29c-3.22-3.61-6.39-7.22-9.54-10.89A852.53,852.53,0,0,1,89.16,1488.94v0c.34-1.84.67-3.65,1-5.47q.38-2.13.78-4.26c.31-1.65.62-3.29.91-4.94.26-1.34.51-2.69.76-4,.2-1.15.43-2.29.64-3.44l1.44-7.39c2.9-14.88,6-29.36,9.1-43.44.67-3,1.34-5.87,2-8.77.21-.94.42-1.87.65-2.81q1.78-7.8,3.59-15.43l.69-2.85c.71-3,1.44-6.06,2.17-9,.1-.48.23-1,.33-1.44.5-1.94,1-3.9,1.44-5.84.13-.5.25-1,.36-1.44l3.58-14.34c.13-.48.26-1,.36-1.44.08-.29.15-.58.23-.87.52-2.07,1.06-4.11,1.59-6.14s1-4.11,1.56-6.13c.19-.69.35-1.36.54-2.05.13-.46.25-1,.38-1.44.44-1.69.85-3.34,1.29-5s.88-3.3,1.32-5c1-3.84,2-7.59,3-11.31.84-3.07,1.65-6.11,2.46-9.14.52-2,1.07-4,1.61-6s1-3.94,1.59-5.88c.62-2.28,1.21-4.55,1.83-6.78s1.21-4.45,1.8-6.64c.2-.81.43-1.61.66-2.42.61-2.19,1.21-4.4,1.84-6.59.73-2.65,1.48-5.28,2.23-7.93,1.19-4.11,2.38-8.22,3.61-12.34.9-3,1.84-6,2.76-9.07.21-.67.41-1.34.62-2,.44-1.44.9-2.9,1.36-4.34.69-2.25,1.4-4.48,2.11-6.74.62-2,1.27-3.92,1.9-5.86.68-2.09,1.37-4.17,2-6.26s1.4-4.17,2.09-6.26l1.56-4.59v0c.69-2,1.36-3.9,2-5.86q1.22-3.48,2.44-7c.48-1.38,1-2.72,1.46-4.07.77-2.17,1.54-4.34,2.34-6.49s1.52-4.18,2.29-6.24c.65-1.79,1.32-3.59,2-5.36.78-2,1.55-4.09,2.32-6.14s1.48-3.82,2.23-5.74c.09-.23.17-.46.27-.69.21-.58.44-1.14.67-1.71.65-1.69,1.32-3.38,2-5l2-5c.81-2,1.6-4,2.42-6,1.12-2.8,2.27-5.53,3.42-8.29.4-.91.77-1.83,1.17-2.75.31-.75.6-1.5.94-2.25s.62-1.49.94-2.24.64-1.54,1-2.31.66-1.57,1-2.32c.67-1.54,1.33-3.09,2-4.63.29-.69.59-1.36.88-2,.08-.18.19-.39.27-.6s.19-.42.27-.63c.5-1.1,1-2.21,1.46-3.31s1-2.24,1.48-3.32c2.47-5.53,5-11,7.49-16.45l0,0a.08.08,0,0,1,0-.06q1.88-4,3.81-8.07,3.86-8.12,7.83-16.11c2.65-5.3,5.32-10.58,8-15.8,1.3-2.5,2.61-5,3.9-7.45.73-1.36,1.46-2.73,2.2-4.09,1.25-2.34,2.5-4.69,3.77-7,.13-.25.29-.5.42-.75a1.1,1.1,0,0,1,.15-.25c.27-.5.54-1,.81-1.48.79-1.51,1.61-3,2.42-4.43.21-.39.44-.77.65-1.14.69-1.22,1.35-2.45,2-3.66a4.56,4.56,0,0,0,.33-.56c1.07-1.9,2.13-3.78,3.22-5.63.35-.63.73-1.26,1.08-1.88v0q1.76-3,3.51-6c1.19-2,2.38-4,3.55-6,.73-1.26,1.48-2.49,2.21-3.74,2.81-4.67,5.61-9.28,8.45-13.83,1.17-1.92,2.36-3.82,3.57-5.72q5.1-8.14,10.22-16c.61-.94,1.23-1.88,1.84-2.8,1.33-2,2.67-4.07,4-6.07.8-1.17,1.57-2.34,2.36-3.51,1.55-2.31,3.11-4.63,4.68-6.88,1.1-1.61,2.19-3.2,3.29-4.78a9.91,9.91,0,0,1,.61-.88c.25-.38.5-.75.77-1.13l1.36-2c.31-.46.62-.92,1-1.36v0c.31-.43.62-.89.94-1.33l2.54-3.61c2.34-3.28,4.63-6.53,7-9.7l1-1.38,2.46-3.36,2.34-3.21q.92-1.26,1.86-2.49c.48-.67,1-1.31,1.46-2,.67-.9,1.31-1.79,2-2.67q3-4,6-7.89c1.5-2,3-3.9,4.46-5.8,1.26-1.63,2.51-3.21,3.74-4.8,1.94-2.48,3.88-4.94,5.8-7.34s3.82-4.78,5.72-7.12c1.27-1.54,2.52-3.11,3.77-4.61l3.7-4.51c1.86-2.23,3.69-4.4,5.49-6.55s3.61-4.26,5.38-6.32c.77-.94,1.56-1.86,2.36-2.78,2-2.29,3.94-4.55,5.88-6.74,1-1.1,1.92-2.19,2.88-3.25.23-.27.46-.55.69-.8l2.13-2.37c.21-.23.39-.48.62-.71s.42-.5.65-.73.4-.44.59-.65c.6-.69,1.21-1.38,1.81-2.05l2.67-2.94,2.71-3c1.78-2,3.55-3.84,5.26-5.68l5-5.34c.61-.65,1.23-1.29,1.84-1.92l3-3.11c.77-.81,1.54-1.58,2.3-2.38l2.23-2.29,4.28-4.34,2-2.05c.65-.66,1.29-1.31,1.94-1.94l1.9-1.88h0c.63-.62,1.21-1.23,1.82-1.79s1.16-1.15,1.73-1.69c.29-.29.56-.56.83-.81s.57-.57.84-.82.35-.33.52-.5c.9-.85,1.75-1.67,2.54-2.46,1-.92,1.9-1.8,2.78-2.61l2.42-2.27,2.94-2.72c.21-.18.4-.37.63-.58l1.61-1.48c.54-.48,1.08-1,1.64-1.53,2.78-2.56,5.78-5.32,9-8.2,1.69-1.54,3.44-3.11,5.23-4.73,6.3-5.66,13.25-11.79,20.85-18.26,2.17-1.86,4.38-3.74,6.68-5.64s4.59-3.83,6.94-5.78,4.83-3.94,7.31-5.92c.79-.65,1.58-1.3,2.4-1.92.44-.38.9-.73,1.33-1.09s1-.79,1.48-1.16c.78-.63,1.57-1.26,2.36-1.86,1.3-1,2.59-2,3.9-3.07.59-.46,1.17-.9,1.76-1.33,2.06-1.61,4.15-3.2,6.28-4.85h0c1.36-1,2.75-2.08,4.13-3.11s2.8-2.08,4.22-3.13q4.25-3.15,8.64-6.32c1.46-1.06,2.94-2.11,4.42-3.17s2.73-1.92,4.09-2.9a4.66,4.66,0,0,1,.4-.25,2,2,0,0,1,.37-.25c.52-.38,1-.73,1.54-1.09.21-.16.44-.31.65-.48,1.07-.75,2.17-1.5,3.26-2.23.18-.12.35-.25.54-.37l.56-.38,3.3-2.25c.54-.38,1.08-.76,1.65-1.11l1.67-1.13c.21-.12.39-.27.6-.39s.63-.42.92-.63a3.61,3.61,0,0,1,.36-.23.2.2,0,0,1,.1-.08c.35-.23.71-.46,1.06-.71h0c.11-.06.21-.15.32-.21l2.06-1.36a2,2,0,0,1,.28-.16,2.06,2.06,0,0,1,.41-.29,2.09,2.09,0,0,1,.34-.21,6.58,6.58,0,0,1,.54-.38c1.08-.73,2.19-1.44,3.3-2.15l1.44-.94,2.14-1.38c1.95-1.23,3.87-2.46,5.81-3.67l.31-.21a.85.85,0,0,1,.17-.1c.75-.48,1.52-1,2.29-1.42s1.55-1,2.3-1.44l.23-.15a1.21,1.21,0,0,1,.2-.14c.67-.42,1.36-.81,2-1.25.17-.09.31-.19.46-.25a1.34,1.34,0,0,1,.27-.17c1.79-1.11,3.61-2.19,5.4-3.28s3.4-2,5.12-3c1-.59,1.94-1.17,2.94-1.73.46-.28.92-.55,1.38-.8.77-.46,1.56-.92,2.33-1.35a.62.62,0,0,1,.19-.11.35.35,0,0,1,.13-.08c.68-.4,1.37-.79,2.08-1.19l3.26-1.86q2.43-1.38,4.88-2.73a4.51,4.51,0,0,1,.52-.29c.69-.38,1.38-.78,2.09-1.15l2.08-1.15.13-.06.06,0c1-.53,2-1.11,3-1.63a9.86,9.86,0,0,1,1-.5c.59-.36,1.17-.69,1.76-1,1.77-1,3.54-1.9,5.34-2.86l1.6-.84a2,2,0,0,0,.3-.14h0a2.38,2.38,0,0,1,.29-.17c.71-.36,1.38-.71,2.09-1.09,0,0,.08,0,.12-.06a.4.4,0,0,0,.13-.06c.18-.08.35-.19.52-.27.58-.29,1.12-.59,1.71-.88l1.81-.92c.9-.46,1.8-.92,2.72-1.37s1.58-.82,2.42-1.21l.37-.19c1.8-.9,3.59-1.8,5.41-2.67h0c1.77-.88,3.55-1.74,5.32-2.57.77-.37,1.54-.75,2.32-1.11l2.31-1.1q2.13-1,4.26-2c1.92-.9,3.84-1.78,5.78-2.65,1.48-.65,2.94-1.32,4.42-2,.48-.23,1-.44,1.42-.65l1.65-.71c.54-.25,1.09-.48,1.63-.71.77-.36,1.54-.67,2.31-1l.13-.06a1.76,1.76,0,0,1,.35-.15c.25-.13.53-.25.78-.35,1.06-.46,2.1-.9,3.17-1.34.52-.23,1-.44,1.56-.65l0,0c.53-.21,1.05-.44,1.57-.64l.6-.26.76-.31,2.19-.9c.43-.2.87-.37,1.31-.56.75-.29,1.48-.6,2.23-.9h0c1.63-.66,3.24-1.31,4.87-1.94.75-.31,1.5-.6,2.25-.89l1-.4c.5-.19,1-.4,1.55-.58l1.1-.44c.19-.09.36-.15.52-.21a3.29,3.29,0,0,1,.55-.21c.18-.06.37-.15.56-.21.63-.23,1.23-.46,1.86-.71l.52-.19.54-.21c1.09-.41,2.19-.85,3.3-1.23.21-.1.44-.16.67-.25.73-.27,1.41-.54,2.12-.79.34-.1.65-.25,1-.33.88-.34,1.76-.67,2.63-1l2.61-.94c.17,0,.33-.13.5-.17s.34-.13.5-.17c.67-.25,1.38-.5,2-.73l2.06-.73c.69-.25,1.38-.48,2.07-.71s1.38-.48,2.06-.71l.15,0c.69-.25,1.36-.48,2-.71l.37-.12c.17,0,.31-.11.46-.15.5-.19,1-.35,1.54-.52l.92-.31h0a.33.33,0,0,1,.15-.05c.42-.16.88-.31,1.29-.43a1,1,0,0,1,.28-.09l1.27-.42a1.21,1.21,0,0,1,.25-.08c1-.35,2-.67,3.07-1,.52-.19,1-.35,1.56-.5,2.15-.69,4.28-1.36,6.41-2,2.31-.71,4.65-1.44,7-2.13,1.35-.4,2.71-.82,4.07-1.19s2.9-.86,4.34-1.25l2.44-.69c.85-.23,1.75-.5,2.71-.75l.38-.11a.37.37,0,0,0,.14,0c.59-.17,1.19-.33,1.78-.48l.93-.25.94-.27c1.3-.36,2.63-.71,4-1.09l.4-.1c.52-.15,1-.27,1.54-.4l1.59-.43.83-.19a7.58,7.58,0,0,1,.82-.21c.56-.15,1.12-.29,1.69-.42.23-.06.46-.14.69-.19l.68-.18a.49.49,0,0,1,.19,0l.17,0,.46-.12,2.29-.57c.27-.06.57-.12.86-.2l1.52-.36.77-.19.8-.19.31-.06.08,0,.3-.08,2-.44c.64-.17,1.31-.31,2-.46l2-.44c.68-.16,1.39-.31,2.1-.46,1.26-.29,2.51-.54,3.8-.81l1.38-.29,1.38-.29,2.27-.44c.77-.17,1.52-.32,2.32-.46s1.58-.31,2.35-.46c1.59-.29,3.2-.61,4.85-.9l2.46-.44c1.67-.29,3.36-.58,5.09-.85,1.19-.21,2.38-.4,3.59-.56l2-.32c.56-.1,1.13-.19,1.69-.27l2.38-.35c.33,0,.67-.11,1-.15,7.18-1,14.75-2,22.72-2.82l2.28-.23c.37-.06.77-.08,1.15-.12l1.4-.13c.22,0,.48,0,.73-.08s.62,0,1-.08c2.71-.25,5.5-.48,8.32-.69.38,0,.75-.06,1.13-.09l3.23-.23c3.24-.23,6.53-.41,9.87-.58l3.36-.17,3.72-.16c1,0,2-.07,3.08-.11,2.55-.06,5.12-.14,7.7-.19l1.38,0,1.38,0,3.55,0c1.19,0,2.37,0,3.56,0,3.41,0,6.87,0,10.33.1.9,0,1.8,0,2.69.07l2.68.06,1.83.06c2.92.09,5.89.21,8.87.36l5.49.29q5.48.32,11.08.75c1.06.08,2.15.17,3.21.27l.69.07.69,0c.6.06,1.21.1,1.81.14v0l.86.07c.92.08,1.84.16,2.73.27a1.1,1.1,0,0,1,.27,0l2.47.25c2.79.29,5.57.58,8.28.92s5.16.62,7.68,1c2,.27,4.07.56,6.07.85s4,.59,6,.9a2,2,0,0,1,.34,0c2,.34,4,.65,6,1q2.68.45,5.36.94c1.17.21,2.36.42,3.53.65.25,0,.52.08.77.14l.75.13c.67.15,1.31.27,2,.38l4.38.89h.11l5.46,1.17c1.86.4,3.68.79,5.51,1.21,1,.21,2,.44,3,.69,1.39.31,2.77.65,4.15,1l3.52.88h0l5.4,1.37c.52.13,1,.28,1.52.42a.71.71,0,0,1,.21,0l.21,0c.27.09.56.15.86.23l1,.27c.35.09.66.17,1,.28a.86.86,0,0,1,.21,0,.12.12,0,0,0,.08,0l1.57.44c.52.12,1,.27,1.52.41l.23.07c.79.23,1.58.44,2.36.64.33.11.66.21,1,.3.16,0,.31.08.48.14a2,2,0,0,1,.44.13,3.74,3.74,0,0,1,.45.12c1.78.5,3.49,1,5.24,1.55h0l1.4.41c.48.13.94.28,1.4.42s1,.31,1.54.48.94.27,1.4.44l1.38.42,1.94.6,2.52.82.5.16c.69.21,1.36.44,2,.65l3.44,1.13.36.14a1.09,1.09,0,0,1,.37.13c.5.16,1,.31,1.53.5l.91.31q7.42,2.51,14.55,5.16c1.58.56,3.15,1.14,4.69,1.73,2.09.79,4.13,1.56,6.18,2.36.31.1.6.23.9.33l.41.19a1.52,1.52,0,0,1,.36.12c1.35.52,2.69,1.05,4,1.59,1.64.64,3.31,1.29,4.94,2l1.11.44c.81.33,1.6.67,2.4,1l2.65,1.1h0c.39.17.81.32,1.21.5l7,3c.83.35,1.67.69,2.48,1l.13.06a.36.36,0,0,1,.19.09.84.84,0,0,1,.2.08.9.9,0,0,1,.23.08c.38.15.71.32,1.09.48h0l1.69.73,1.69.71.52.23.52.23,1.07.44c1,.44,2,.9,3,1.34l.3.12a1.83,1.83,0,0,1,.29.11l4.48,2c.84.35,1.67.73,2.51,1.1s1.67.71,2.5,1.09l2.46,1.06c.82.38,1.63.73,2.47,1.09s1.92.85,3,1.31c.24.1.5.23.76.35h0a2.39,2.39,0,0,1,.54.25,1.39,1.39,0,0,1,.26.1c.54.23,1.06.48,1.58.71l.81.36c.42.18.84.37,1.26.58s.83.38,1.25.56c.27.13.56.28.83.4s.57.27.86.4h0c.56.27,1.15.52,1.73.81s1.19.54,1.78.83l1.81.86h0l1.86.88c.15.08.31.14.46.23.39.18.79.37,1.19.58l1.23.58c1.21.59,2.46,1.19,3.73,1.82s2.55,1.25,3.86,1.9c.86.44,1.76.88,2.65,1.31l2.68,1.38a3.27,3.27,0,0,1,.31.17c.21.08.42.19.62.29.46.23.9.46,1.36.71,0,0,0,0,0,0,.46.23.92.46,1.38.71.29.17.6.31.92.48s.62.31.91.48l1.28.65c.19.1.39.2.6.33s.44.21.65.33q3.95,2.07,8,4.26l1.38.73q4.66,2.5,9.56,5.24l.62.35c.21.11.42.21.63.34,1.4.77,2.78,1.56,4.19,2.38h0c.64.35,1.31.73,2,1.12,1.08.61,2.17,1.21,3.27,1.86.38.21.75.44,1.13.67a1.27,1.27,0,0,1,.23.12l.42.25c.48.25,1,.55,1.46.84,1.67,1,3.36,1.94,5,3,.23.13.46.25.69.4l1.79,1.06c1.13.67,2.27,1.34,3.4,2.05.52.29,1,.6,1.57.91a3.26,3.26,0,0,0,.48.3l2.86,1.75.81.5,2.11,1.27c.83.52,1.67,1,2.5,1.57q3.72,2.28,7.51,4.69c.94.59,1.9,1.19,2.84,1.8l1,.62c.33.19.65.4,1,.61l1.36.87,1.64,1.07c.57.35,1.13.71,1.67,1.06,2.2,1.42,4.43,2.9,6.68,4.39a2.32,2.32,0,0,0,.46.31c.48.33,1,.67,1.46,1l1.48,1c1.48,1,3,2,4.53,3.07l2.28,1.54,3.44,2.36c.08,0,.14.1.23.15l3.25,2.25c.25.19.52.37.78.56s.54.36.79.55a.76.76,0,0,1,.21.14.35.35,0,0,1,.1.08,1.19,1.19,0,0,1,.15.09c.5.33.94.67,1.44,1h0l1.42,1c.39.29.81.59,1.23.88s.56.42.85.62a4.61,4.61,0,0,1,.38.28,2.16,2.16,0,0,1,.4.27c.39.27.79.54,1.16.83l0,0c.18.15.39.29.58.42a5.67,5.67,0,0,1,.58.42v0s.05,0,.07,0a.55.55,0,0,1,.21.15l.08,0,0,0h0v0s.07,0,.11.08l.27.19a1.54,1.54,0,0,0,.29.21l0,0a.44.44,0,0,1,.17.12h0v0s0,0,0,0,.23.14.33.23.36.27.55.39a3.55,3.55,0,0,0,.31.23l.08,0v0a2,2,0,0,0,.23.17c.29.19.59.4.88.63,1.25.89,2.5,1.81,3.78,2.75.18.13.39.27.58.42a3.06,3.06,0,0,1,.58.44,3.48,3.48,0,0,1,.59.44c.06,0,.08,0,.14.08s0,0,0,0c.27.17.54.38.79.56v0h0c-.23.08-.44.16-.65.22a1.25,1.25,0,0,0-.29.11,1.62,1.62,0,0,0-.27.08l-1.13.4s0,0,0,0a.07.07,0,0,1-.06,0h0l-.08,0,0,0c-.17.05-.31.09-.46.15s-.33.1-.48.17l-.52.18-.63.25a3.53,3.53,0,0,0-.39.15l-1.07.38a3.29,3.29,0,0,1-.44.16l-.94.38-.93.35c-.32.13-.61.23-.9.36s-.75.31-1.15.46a.44.44,0,0,1-.15.08l-1,.4c-.12,0-.23.12-.37.16l-.57.25c-.73.3-1.44.61-2.19.94a.82.82,0,0,0-.23.11,2,2,0,0,1-.23.08s-.06,0-.06,0l-.08,0c-.15.09-.32.15-.48.23l0,0-.28.13c-.25.1-.5.23-.75.33l-1.5.71c-1,.48-2.07,1-3.09,1.48s-2.06,1-3.07,1.55c-2,1-4,2.15-6,3.27-.87.5-1.77,1-2.62,1.53l-.71.44-.53.31c-.16.1-.33.21-.52.31a.42.42,0,0,1-.12.08s0,0-.09,0c-.39.25-.81.52-1.21.75s-.83.52-1.21.79a.51.51,0,0,0-.16.11.55.55,0,0,0-.15.08c-.12.06-.21.15-.31.21s-.06,0-.11.06c-.41.27-.83.52-1.25.81l-.73.48s0,0-.06.07a5.35,5.35,0,0,0-.67.46,2.22,2.22,0,0,0-.44.29l-.23.14-.21.15a.7.7,0,0,0-.16.1l-.25.19a1.38,1.38,0,0,0-.25.17,0,0,0,0,0,0,0c-.73.48-1.42,1-2.13,1.48-.32.23-.63.46-.94.71s-.63.46-.94.69-.42.29-.61.44l-.52.35,0,0s0,0,0,0l-.31.24c-.13.09-.21.17-.32.24-.39.31-.79.6-1.21.93h0l-1.42,1.13a6.54,6.54,0,0,0-.52.4l-.21.19a8.28,8.28,0,0,0-.89.7,3.48,3.48,0,0,0-.3.26c-.35.27-.69.56-1,.85s-.73.61-1.11.92c-1.08.92-2.17,1.86-3.23,2.82-.48.41-1,.85-1.42,1.29-.73.63-1.44,1.29-2.15,2-.5.46-1,1-1.5,1.44-1,1-2,2-3,3l-.23.23-1.14,1.19c-.21.22-.44.48-.69.7l-.13.15-.12.17a4.16,4.16,0,0,0-.42.42c-.23.22-.44.45-.67.68v0l-1.23,1.34c-.15.15-.27.29-.42.46s-.52.58-.79.9c-.56.62-1.15,1.27-1.69,1.92a5.72,5.72,0,0,0-.4.46c-.25.29-.5.58-.73.87s-.27.29-.37.44c-.38.42-.73.83-1.09,1.27-.69.84-1.35,1.67-2,2.53-.55.69-1.11,1.37-1.63,2.08-.19.23-.36.46-.52.69s-.42.52-.61.77a1.82,1.82,0,0,0-.14.19c-.25.34-.5.67-.75,1-.38.53-.73,1-1.11,1.53l-.23.31-1.17,1.65c-.23.31-.44.62-.67.94a10.66,10.66,0,0,1-.6.89c-.21.32-.42.63-.63.92s-.21.29-.29.44a.65.65,0,0,0-.1.15l-.65,1c-.17.25-.36.5-.52.77-.5.75-1,1.5-1.48,2.27-.17.3-.38.59-.55.88-.5.81-1,1.63-1.5,2.42s-.79,1.31-1.19,2l-.5.88c-.19.29-.35.58-.54.9s-.25.43-.38.66-.29.5-.41.76c-.07.1-.11.18-.17.27s-.08.14-.13.21a.42.42,0,0,1-.08.12v0l-.56,1-1,1.86c-.52,1-1,2-1.56,3-.1.19-.21.38-.29.57-.27.54-.57,1.06-.82,1.6-.14.27-.27.52-.39.8l0,0s0,0,0,0c-.2.42-.39.81-.58,1.23s-.27.56-.4.84-.23.45-.35.7c0,.09-.08.19-.13.28a9.53,9.53,0,0,0-.45,1,2,2,0,0,0-.17.37c-.15.25-.25.52-.38.79l-.06.15,0,.08c-.06.13-.13.25-.19.4-.19.4-.38.79-.54,1.19s-.36.79-.52,1.19c-.07.17-.15.33-.23.52a3.55,3.55,0,0,0-.21.5c-.29.65-.57,1.3-.84,1.94a2.38,2.38,0,0,1-.12.27c0,.09-.09.17-.13.27s0,.07,0,.09c-.16.42-.33.81-.5,1.21s-.25.58-.35.87-.13.3-.19.44c-.17.38-.31.75-.44,1.13-.42,1-.83,2.11-1.23,3.19-.17.4-.31.79-.46,1.21s-.42,1.09-.6,1.63c0,0,0,0,0,.06a.88.88,0,0,1-.06.17s0,.08,0,.15c-.21.52-.4,1.06-.58,1.62l-.57,1.63c-.12.36-.25.73-.37,1.11,0,.12-.09.25-.13.39l-.12.4c-.15.44-.32.9-.46,1.38-.07.23-.15.48-.23.71-.27.87-.54,1.73-.82,2.61s-.58,1.94-.85,2.9c-.13.41-.25.81-.36,1.21a.07.07,0,0,1,0,.06.86.86,0,0,1,0,.21s0,.06,0,.1,0,.17-.06.25v0h0v0a.08.08,0,0,0-.07.05l0,0,0,0c-.17.14-.35.31-.52.46l-1.61,1.44,0,0c-.73.66-1.46,1.31-2.21,2-.52.46-1,.92-1.52,1.42a2.67,2.67,0,0,0-.36.31c-.12.13-.21.23-.33.34-.73.68-1.46,1.37-2.19,2.08l-1.59,1.57c-.54.52-1.06,1-1.61,1.56a.52.52,0,0,0-.08.11l-.1.08v0c-.61.61-1.19,1.19-1.78,1.8-.44.43-.87.87-1.29,1.31v0l-2.8,2.9c-1.14,1.25-2.31,2.51-3.48,3.78l-2,2.25c-.69.77-1.37,1.55-2,2.32s-1.36,1.52-2,2.29-1.33,1.55-2,2.32c0,0,0,0,0,.06-.67.77-1.32,1.55-2,2.32l-1.94,2.31c-1.3,1.57-2.61,3.16-3.88,4.72s-2.57,3.15-3.82,4.74c-.65.79-1.28,1.58-1.88,2.38L1166,885q-.93,1.19-1.83,2.37l-1.84,2.36-3,3.94-2.19,2.91-1.56,2.06c-.38.5-.77,1-1.15,1.53-.77,1-1.57,2.08-2.34,3.13-1.33,1.73-2.61,3.44-3.88,5.15l0,0c-.23.29-.44.61-.67.9l-2.58,3.48c-1.07,1.48-2.13,2.94-3.2,4.4l-.41.61c-1.09,1.54-2.15,3.07-3.24,4.59-.17.25-.31.46-.48.69-.85,1.25-1.69,2.46-2.52,3.69-.17.27-.36.5-.53.77-1,1.47-2,2.93-2.92,4.39s-2.06,3.15-3.06,4.71c-.32.46-.61.92-.9,1.38-.48.79-1,1.54-1.46,2.32-.23.35-.44.68-.65,1-.65,1-1.29,2.06-1.92,3.09-.54.85-1.06,1.71-1.56,2.56s-1,1.71-1.55,2.55c-.06.08-.12.19-.17.27a9.07,9.07,0,0,0-.56.9l-1.38,2.36c-.46.77-.91,1.56-1.37,2.33v0a3.81,3.81,0,0,0-.23.4c-.09.13-.15.27-.23.4a9.85,9.85,0,0,0-.52.89c-.3.5-.59,1-.86,1.49s-.58,1-.85,1.48c-.44.79-.9,1.54-1.32,2.33s-.88,1.55-1.29,2.34a0,0,0,0,1,0,0l-1.28,2.32c-.41.77-.83,1.54-1.25,2.31l-1.25,2.32c-.42.77-.84,1.57-1.23,2.32v0a.48.48,0,0,0-.09.14.66.66,0,0,0-.08.13c-.37.73-.75,1.46-1.13,2.19s-.75,1.44-1.12,2.15c-1.38,2.71-2.76,5.42-4.07,8.12-.67,1.35-1.32,2.69-2,4s-1.28,2.7-1.9,4c-.17.33-.32.67-.48,1-.06.15-.15.32-.21.46-.44,1-.88,1.88-1.29,2.82s-.76,1.63-1.13,2.44c-1,2.13-1.9,4.26-2.82,6.36-.25.57-.5,1.15-.77,1.72-.06.16-.13.35-.21.52-.69,1.62-1.38,3.23-2,4.86-.3.67-.57,1.33-.84,2-.33.82-.67,1.61-1,2.4v0h0l-1.75,4.38v0l-1.07,2.69c-.23.54-.44,1.1-.64,1.67-.28.73-.57,1.46-.84,2.17s-.56,1.46-.83,2.17-.55,1.46-.82,2.17-.54,1.42-.79,2.15c-1.06,2.83-2.07,5.67-3,8.49s-1.92,5.59-2.84,8.35c-.45,1.39-.91,2.77-1.35,4.11s-.86,2.67-1.27,4c-.21.65-.42,1.32-.63,2s-.4,1.29-.58,2q-.77,2.47-1.51,4.92c-.48,1.63-1,3.26-1.42,4.86-.2.71-.41,1.42-.6,2.15v0a3,3,0,0,1-.13.36q0,.15-.06.27c0,.13-.06.27-.1.4a.2.2,0,0,0,0,.06c-.28.92-.53,1.84-.78,2.75-.16.63-.33,1.28-.52,1.9s-.33,1.25-.5,1.9c-.69,2.53-1.33,5-1.94,7.41s-1.23,4.84-1.79,7.2c-.27,1.19-.55,2.36-.84,3.52-.12.53-.25,1.07-.37,1.59-.19.81-.4,1.65-.57,2.48-.52,2.28-1,4.55-1.5,6.76-.19.88-.38,1.74-.56,2.61v0a6.74,6.74,0,0,0-.17.75c-.15.63-.27,1.26-.4,1.86-.08.42-.16.79-.25,1.21-.37,1.9-.75,3.74-1.12,5.55-.38,2-.75,4-1.13,5.91s-.71,3.8-1,5.63c-.36,2-.71,3.9-1,5.76-.06.36-.14.71-.18,1.07s-.13.68-.19,1-.15.85-.21,1.27-.15.81-.21,1.21l-.06.42c-.27,1.48-.5,2.9-.73,4.26s-.5,2.94-.73,4.34c-.11.73-.23,1.44-.36,2.17-.21,1.31-.44,2.69-.66,4.09,0,.12-.05.27-.09.43s0,.19,0,.3a2.14,2.14,0,0,0-.06.35c0,.1,0,.23-.06.36s-.09.5-.13.7a1,1,0,0,0,0,.23c0,.32-.08.63-.15.94-.23,1.4-.46,2.84-.67,4.3-.14.84-.27,1.69-.39,2.53-.06.43-.13.85-.21,1.29s-.13.86-.19,1.29a.47.47,0,0,0,0,.17c0,.15-.06.31-.08.48a2.4,2.4,0,0,1-.09.48c-.06.5-.14,1-.2,1.5-.13.9-.26,1.78-.38,2.67,0,.19-.06.34-.08.51v0a2.11,2.11,0,0,0,0,.35c-.1.63-.18,1.25-.27,1.9,0,.15,0,.31-.08.5a.62.62,0,0,1,0,.19v0c-.21,1.63-.44,3.25-.65,5-.14,1-.27,1.94-.37,2.89s-.23,2-.36,3-.25,2-.35,3-.23,2-.34,3.07c0,.42-.1.84-.14,1.27q-.2,1.7-.36,3.45c-.08.79-.14,1.58-.23,2.4s-.14,1.6-.21,2.42v0c-.08.92-.16,1.84-.25,2.77,0,.17,0,.32,0,.48a3.31,3.31,0,0,0,0,.44c-.06.73-.12,1.46-.19,2.19s-.12,1.59-.18,2.4a1.89,1.89,0,0,1,0,.4c0,.85-.12,1.73-.18,2.61-.09,1.15-.15,2.31-.21,3.48l-.06,1c0,.71-.07,1.42-.11,2.15-.08,1.69-.19,3.41-.25,5.12v.1c0,.65,0,1.32-.08,2,0,.86-.07,1.71-.11,2.59v.08c0,.48,0,1,0,1.44s0,.71,0,1.09,0,.71,0,1.08c0,1.07-.06,2.15-.08,3.24v.06c0,.75,0,1.48,0,2.21,0,.5,0,1,0,1.5,0,.94,0,1.88,0,2.84,0,1.48,0,3,0,4.49v1.42c0,.35,0,.73,0,1.1v.17c0,.61,0,1.21,0,1.84,0,.41,0,.83,0,1.27,0,.83,0,1.69.06,2.55s0,1.75.06,2.65c0,.39,0,.79,0,1.18.07,2,.13,3.89.23,5.87s.19,3.94.32,5.95c.16,3,.39,6,.62,9.09.13,1.53.25,3.07.4,4.64s.27,3.1.44,4.67c.12,1.08.23,2.19.35,3.3,0,.46.09.89.15,1.35,0,.3.06.59.08.9a1.65,1.65,0,0,1,0,.31c0,.15,0,.3,0,.46.32,2.65.65,5.32,1,8q.32,2.42.66,4.89.45,3.06.92,6.4c.09.57.17,1.11.25,1.69s.19,1.15.27,1.72.17,1.14.25,1.73.17,1.19.28,1.79c0,.29.08.59.14.9s.08.6.15.9c.08.45.14.91.21,1.37s.16.92.23,1.38.08.63.14.94c.52,3.11,1.07,6.34,1.67,9.7.06.4.15.77.23,1.15s.1.58.15.86c.14.68.27,1.37.39,2.06.27,1.4.55,2.78.82,4.17.21,1,.39,1.94.6,3,.27,1.27.54,2.56.84,3.86v0c.39,1.88.83,3.75,1.29,5.69,0,.23.11.48.15.71.21.82.39,1.63.6,2.45.25,1,.52,2.1.77,3.17.34,1.35.71,2.75,1.07,4.15.27,1,.54,2.09.83,3.15s.59,2.13.9,3.19.61,2.15.94,3.24.62,2.17,1,3.27c.1.32.19.61.27.92.38,1.15.73,2.3,1.09,3.49,0,.08,0,.14.06.23s0,.14.08.2.06.19.11.3a.58.58,0,0,0,0,.18l.06.21c.31,1,.63,1.92.94,2.88.6,1.82,1.21,3.63,1.84,5.47q.09.25.18.54c.21.54.4,1.11.59,1.63.31.88.6,1.71.92,2.59.06.14.12.31.18.46s.17.48.25.73.09.27.15.41l.19.51.06.18c0,.11.08.21.13.32a1,1,0,0,1,.06.14c.31.82.6,1.63.92,2.46.2.57.43,1.13.66,1.71s.44,1.15.67,1.74c.59,1.5,1.19,3,1.8,4.48v0c.35.88.73,1.76,1.1,2.65l.44,1.07c.15.35.31.73.46,1.1s.25.55.38.84a3.61,3.61,0,0,1,.16.42c.19.41.38.83.54,1.23a2.2,2.2,0,0,1,.17.39,2.92,2.92,0,0,1,.17.36c.06.14.12.27.17.42l.18.39c.29.71.63,1.4.94,2.11s.65,1.44,1,2.15.63,1.38.94,2.07c.09.16.19.37.27.54a7.37,7.37,0,0,0,.38.81c.37.82.75,1.63,1.15,2.44.1.21.21.4.29.61v0q1.18,2.44,2.44,4.92l.75,1.53c.21.44.44.85.65,1.27a3.9,3.9,0,0,0,.19.35c.18.34.35.69.52,1,.35.69.73,1.37,1.1,2.11s.75,1.41,1.13,2.1c.5.94,1,1.88,1.52,2.84s1.07,1.88,1.59,2.82c.31.58.65,1.17,1,1.75a3.47,3.47,0,0,1,.27.46c.65,1.15,1.34,2.32,2,3.48.38.63.73,1.28,1.13,1.92s.75,1.28,1.13,1.92v0l2.33,3.94c1.26,2.15,2.55,4.32,3.89,6.55l.5.84c.16.27.33.54.5.81v0c.33.56.66,1.08,1,1.65.08.12.17.27.25.42a5.08,5.08,0,0,0,.27.43l1.57,2.55c.6.94,1.21,1.9,1.81,2.86.5.75,1,1.5,1.46,2.27.75,1.15,1.5,2.32,2.26,3.47v0c.58.87,1.16,1.73,1.77,2.61.08.12.19.27.27.41a4.73,4.73,0,0,1,.29.44c.19.29.4.59.61.88.1.14.19.31.31.46s.21.29.31.43c.4.59.8,1.17,1.19,1.76v0l2.53,3.53c1.44,2,2.94,4,4.48,6.07.46.6.94,1.23,1.42,1.83l.69.9c.13.15.27.34.4.5s.06.09.08.11c.71.87,1.38,1.73,2.09,2.6q1.59,2,3.27,4l.76.9c.27.29.52.58.77.87.62.74,1.27,1.47,1.92,2.22s1.15,1.31,1.77,2q1.79,2,3.63,4c.63.67,1.25,1.34,1.88,2s1.27,1.31,1.92,2v0c.67.65,1.31,1.29,2,1.94h0l1.71,1.69c.61.6,1.21,1.19,1.84,1.77h0c1.21,1.15,2.44,2.3,3.69,3.43.34.27.65.56,1,.85s.63.54,1,.84c.63.58,1.28,1.14,1.92,1.71s1.32,1.1,2,1.64c.33.3.66.57,1,.86,1.33,1.11,1.67,1.38,2,1.65,1,.83,2.07,1.65,3.11,2.46l1.56,1.21c.53.42,1.07.82,1.61,1.21,2.15,1.61,4.36,3.19,6.6,4.76.48.33.93.65,1.41,1s.9.65,1.38,1h0c.61.39,1.21.81,1.84,1.21s1.23.81,1.86,1.21c.41.27.83.54,1.25.79.75.48,1.52,1,2.29,1.42,1,.61,2,1.23,3,1.82.6.35,1.19.71,1.79,1,1.07.63,2.15,1.23,3.26,1.86,2.56,1.44,5.11,2.81,7.68,4.13h0l1.58.81,1.61.8a2.09,2.09,0,0,0,.29.16,1.87,1.87,0,0,1,.31.17c.34.17.67.31,1,.46l.52.25c.35.19.71.35,1.06.5l.31.17a1.38,1.38,0,0,1,.3.14,5,5,0,0,0,.62.29h0c2.51,1.19,5,2.34,7.49,3.43h0c.6.27,1.23.52,1.85.79.32.13.63.25.92.4l1,.37c.44.19.88.38,1.29.54s.8.34,1.19.48l1.19.48c1.23.48,2.44,1,3.68,1.42q3.38,1.26,6.69,2.38l3.32,1.11c1.09.35,2.19.69,3.28,1,.37.13.73.23,1.08.33h0c1.07.34,2.11.65,3.16.94a3.19,3.19,0,0,0,.33.11l1.19.31c.27.08.56.17.83.23s.48.15.75.21h0l.75.21,2.9.75a2.22,2.22,0,0,1,.39.1.3.3,0,0,1,.15,0c.31.07.6.15.92.21.77.19,1.54.38,2.31.55.21.06.42.1.63.14,1.08.25,2.15.5,3.21.73a1.28,1.28,0,0,1,.3.07c.08,0,.18,0,.29,0v0a.85.85,0,0,0,.23,0c.77.17,1.56.31,2.31.46l1.23.25h0l.2,0,.19,0,.56.13a5.67,5.67,0,0,0,.57.1c.73.13,1.46.27,2.19.38s1.23.23,1.81.31l.44.08c.46.09.92.15,1.38.21l1.19.19,1,.15c.25,0,.48.06.71.08a2.5,2.5,0,0,0,.38.06l.39.06h.07a6.13,6.13,0,0,0,.73.11l.39.06c.82.11,1.61.21,2.4.29l.17,0h0c.42.07.86.11,1.27.15l1.28.12.39.07a2.68,2.68,0,0,0,.4,0l1.73.19c.46,0,.92.08,1.38.1l1.1.11,2.36.18h.09l.81.07.81,0h.07a2.58,2.58,0,0,1,.39,0,3,3,0,0,1,.42,0h0l2.61.13c.85,0,1.69.06,2.54.08h0a.68.68,0,0,0,.2,0l.55,0c.23,0,.46,0,.71,0h.58c1.09,0,2.15,0,3.21,0h1.36c.69,0,1.38,0,2,0h1c.39,0,.79,0,1.19,0s.94,0,1.39,0c.23,0,.46,0,.69,0h0l.07,0,0,0h.56l.46,0,1.29-.06h.09a.58.58,0,0,0,.23,0,5.62,5.62,0,0,0,.58,0l.9,0h.17c.2,0,.41,0,.62,0a5.9,5.9,0,0,0,.63,0c.21,0,.41,0,.62,0,.71,0,1.4-.09,2.09-.15s1.36-.08,2-.15c1.32-.1,2.61-.22,3.91-.37s2.52-.27,3.77-.44c.63-.06,1.23-.15,1.84-.23l1.82-.25,1-.15c.25-.06.48-.08.73-.12l.75-.1c.33-.07.67-.11,1-.17a.93.93,0,0,1,.23,0h0v0c4.13,5.94,7.87,11.16,11.31,16,.69,1,1.38,1.9,2,2.82s1.31,1.83,2,2.75,1.29,1.82,1.94,2.69c2.42,3.34,4.71,6.51,6.95,9.67.75,1,1.48,2.08,2.23,3.13,1.48,2.08,2.94,4.19,4.4,6.34q1.47,2.13,3,4.32c2,3,4,6,6.07,9.28.54.82,1.06,1.63,1.58,2.47,1,1.6,2,3.23,3,4.94l1,1.71c.75,1.23,1.53,2.51,2.3,3.8s1.56,2.63,2.38,4q2.4,4.1,5,8.7v0c.37.65.73,1.25,1.1,1.92l.82,1.46c.27.48.56,1,.83,1.48.58,1,1.17,2.07,1.75,3.13s1.19,2.13,1.8,3.26l0,0q3.43,6.19,6.89,12.48,2.6,4.69,5.19,9.41l5.13,9.39c.59,1,1.15,2.11,1.72,3.15,1.73,3.15,3.42,6.28,5.13,9.43A.07.07,0,0,1,1418.29,1740.15Z"/><path class="cls-4" d="M1131,749.13A71.16,71.16,0,1,1,1059.86,678,71.16,71.16,0,0,1,1131,749.13Z"/><circle class="cls-5" cx="1067.18" cy="734.93" r="23.29"/><path class="cls-6" d="M1627.5,894.84c-42.59-7.31-107-10.72-178.58,11.85-.47.13-1,.29-1.39.42-1.92.62-3.86,1.24-5.77,1.89-1.47.51-2.93,1-4.4,1.52a.08.08,0,0,1,0,0c-2.61.94-5.19,1.89-7.68,2.83-.64.23-1.24.48-1.84.7l-1.11.44-.69.27q-6.91,2.64-13.71,5.64l-1.55.67-2.65,1.15-1.83.82-1.42.65-.54.24c-.5.23-.81.36-.94.43l-.07,0c-.28.13-.57.26-.85.41-1.82.83-3.65,1.71-5.44,2.61-3.46,1.66-6.88,3.41-10.29,5.2q-13.62,7.22-26.69,15.54c1-3.56,2.27-7.08,3.65-10.5,5.11-12.52,10.65-19.31,15.54-25.31,6.44-7.91,13.75-16.86,13.32-32.17,0-.35,0-.71,0-1.09s0-.52,0-.8c-.06-1.06-.18-2.13-.32-3.19,0-.26-.07-.52-.12-.79-.08-.58-.18-1.19-.29-1.77-.16-.87-.36-1.73-.57-2.58-.07-.26-.13-.54-.2-.81s-.13-.54-.21-.82l-.19-.7-.07-.26-.15-.47c-.09-.26-.18-.53-.26-.79a1.08,1.08,0,0,0-.13-.42c-.1-.29-.19-.57-.29-.85s-.26-.76-.42-1.16a1.17,1.17,0,0,0-.09-.24c-.06-.16-.13-.31-.19-.47-.15-.41-.31-.83-.47-1.24-.3-.72-.62-1.45-1-2.19s-.59-1.25-.9-1.89l-.29-.59c-.41-.78-.82-1.59-1.29-2.39s-.94-1.68-1.47-2.51-1-1.68-1.59-2.51c-.28-.43-.54-.84-.84-1.24-.14-.21-.29-.43-.44-.62a7.21,7.21,0,0,0-.47-.62c-.23-.34-.47-.67-.72-1a1.53,1.53,0,0,0-.16-.22c-.15-.21-.29-.4-.46-.6s-.32-.39-.48-.6c0,0,0,0-.05-.07l-.67-.88-.05,0h0l-.16-.21,0,0,0,0-.18-.23a2,2,0,0,1-.19-.21l-.33-.41c-.1-.13-.21-.24-.31-.37-.31-.38-.64-.75-1-1.13,0,0,0-.05-.06-.08l-.69-.76-.39-.45a.33.33,0,0,0-.06-.06,12,12,0,0,0-1-1.14c-19.47-21.07-49-35.22-77-36.93-2-.12-4-.18-6-.18-.78,0-1.55,0-2.33,0-.6,0-1.21,0-1.81.07l-1.12,0h-.28l-.28,0-1.39.1c-.75.05-1.49.11-2.24.19a.86.86,0,0,0-.23,0l-2.14.24c-.78.1-1.56.2-2.35.33-.58.08-1.15.18-1.72.28s-.92.14-1.37.24c-.69.11-1.37.25-2,.39l0,0h0a1,1,0,0,0-.18,0l-.15,0a.22.22,0,0,0-.11,0l-.43.1c-.19,0-.39.08-.58.13h-.05c-.77.16-1.52.34-2.28.54l-.44.11c-.79.2-1.57.39-2.35.62s-1.55.44-2.33.68c-.28.09-.57.17-.85.27l-.85.27a.12.12,0,0,0-.08,0l-.72.23h0l.93-1.59c.13-.25.28-.49.42-.74.28-.49.57-1,.88-1.46,0-.1.12-.2.18-.3l.3-.49c.19-.34.4-.67.62-1s.34-.56.52-.83c.27-.46.55-.9.85-1.34s.4-.64.61-1,.23-.37.36-.55l.38-.57c.24-.38.5-.75.76-1.13l.61-.88c.24-.39.52-.76.78-1.14l.15-.19a3.19,3.19,0,0,1,.26-.38c.94-1.34,1.92-2.66,2.92-4s2.16-2.82,3.32-4.19,2.25-2.71,3.44-4c.3-.34.61-.68.92-1a4,4,0,0,1,.34-.39c.78-.86,1.58-1.73,2.39-2.56l1.81-1.86,1.85-1.81c.66-.63,1.33-1.27,2-1.89.31-.31.64-.59,1-.88.71-.65,1.41-1.29,2.12-1.89s1.44-1.24,2.17-1.84a1,1,0,0,0,.18-.17c.26-.21.54-.42.78-.63l.14-.12c.5-.4,1-.81,1.53-1.2.26-.23.54-.44.81-.66l.2-.14s0,0,.06,0l.07,0c.41-.33.8-.62,1.21-.93l0,0a.31.31,0,0,0,.11-.08l.07,0v0s0,0,.08-.05l1.35-1a2,2,0,0,0,.26-.18s0-.05.08-.06l1-.69c.47-.34,1-.67,1.44-1l.88-.6.06,0c.57-.4,1.14-.79,1.73-1.16s1.48-1,2.23-1.45c1.16-.74,2.33-1.44,3.51-2.12l.88-.52c.29-.18.58-.35.9-.51.58-.34,1.18-.67,1.79-1,.8-.44,1.6-.88,2.41-1.28s1.62-.83,2.43-1.23h0c.81-.41,1.63-.8,2.46-1.19s1.71-.8,2.59-1.18c1.26-.55,2.51-1.09,3.78-1.61l.38-.15.5-.21.82-.33,2.46-.94c1.63-.6,3.26-1.17,4.93-1.71.88-.3,1.76-.57,2.65-.85h0c.78-.25,1.56-.47,2.35-.7s1.37-.39,2-.57l.3-.08.53-.15.33-.08,1.5-.39c.36-.1.73-.2,1.09-.28s.7-.18,1-.26c1-.23,1.93-.46,2.91-.67l.6-.13.51-.1c.7-.16,1.41-.31,2.12-.44.88-.18,1.76-.34,2.65-.5,1.45-.26,2.92-.51,4.41-.74a1.25,1.25,0,0,0,.19,0c1.47-.23,2.95-.42,4.44-.62.6-.08,1.2-.15,1.81-.2h.08c.1,0,.21,0,.31,0a.28.28,0,0,1,.18,0,2.09,2.09,0,0,1,.42,0,.69.69,0,0,1,.2,0l2.54-.25c.94-.08,1.87-.16,2.8-.22s1.88-.15,2.82-.2c.56,0,1.11-.07,1.67-.08l1.33-.07,2-.08c.54,0,1.06,0,1.58,0s1.06,0,1.6,0l1.45,0h1.58l3.51,0c.32,0,.65,0,1,0h.9l.7,0h.72l.41,0,2.54.12c.81,0,1.63.08,2.44.13h.12c.19,0,.41,0,.6,0l2.41.16c57,4.14,121.55,32.37,164.56,71.9,2,1.88,4,3.77,6,5.73q1.71,1.67,3.41,3.42c1.47,1.52,2.9,3.05,4.32,4.6l.9,1c1.06,1.15,2.12,2.33,3.11,3.53a16.56,16.56,0,0,1,1.13,1.32c1.1,1.28,2.16,2.53,3.18,3.82.29.34.58.7.86,1.06,1.14,1.42,2.27,2.85,3.37,4.3a6.09,6.09,0,0,1,.46.61c1,1.3,2,2.64,3,4,.41.56.81,1.14,1.22,1.73,1,1.47,2.06,2.93,3.07,4.42a1.93,1.93,0,0,1,.27.41c1.19,1.77,2.38,3.6,3.54,5.42s2.24,3.59,3.31,5.4,2.14,3.65,3.18,5.5q3.87,6.89,7.32,14.13c.75,1.57,1.48,3.13,2.19,4.73.06.11.11.23.16.34.52,1.13,1,2.24,1.48,3.36.22.47.41.93.59,1.4h0c.33.82.67,1.6,1,2.42.7,1.64,1.36,3.26,2,4.94A1.65,1.65,0,0,1,1627.5,894.84Z"/><path class="cls-7" d="M1627.5,894.84c-42.59-7.31-107-10.72-178.58,11.85-.47.13-1,.29-1.39.42-1.92.62-3.86,1.24-5.77,1.89-1.47.51-2.93,1-4.4,1.52a.08.08,0,0,1,0,0c-2.61.94-5.19,1.89-7.68,2.83-.64.23-1.24.48-1.84.7l-1.11.44-.69.27-1.72.68c-3.61,1.44-6.92,2.8-9.8,4l-2.19.93-1.55.67-2.65,1.15-1.83.82-1.42.65-.54.24c-.5.23-.81.36-.94.43l-.07,0c-.28.13-.57.26-.85.41-1.82.83-3.65,1.71-5.44,2.61-3.46,1.66-6.88,3.41-10.29,5.2q-13.62,7.22-26.69,15.54c1-3.56,2.27-7.08,3.65-10.5,5.11-12.52,10.65-19.31,15.54-25.31,6.44-7.91,13.75-16.86,13.32-32.17,0-.35,0-.71,0-1.09s0-.52,0-.8c-.06-1.06-.18-2.13-.32-3.19,0-.26-.07-.52-.12-.79-.08-.58-.18-1.19-.29-1.77-.16-.87-.36-1.73-.57-2.58-.07-.26-.13-.54-.2-.81s-.13-.54-.21-.82l-.19-.7-.07-.26-.15-.47c-.09-.26-.18-.53-.26-.79-.14-.42-.27-.84-.42-1.27s-.26-.76-.42-1.16a1.17,1.17,0,0,0-.09-.24c-.06-.16-.13-.31-.19-.47-.15-.41-.31-.83-.47-1.24-.3-.72-.62-1.45-1-2.19s-.59-1.25-.9-1.89l-.29-.59c-.41-.78-.85-1.59-1.29-2.39s-.94-1.68-1.47-2.51-1-1.68-1.59-2.51c-.28-.43-.54-.84-.84-1.24-.14-.21-.29-.43-.44-.62a7.21,7.21,0,0,0-.47-.62c-.59-.82-1.19-1.63-1.82-2.43,0,0,0,0-.05-.07l-.67-.88-.05,0h0l-.16-.21,0,0,0,0c-.11-.15-.22-.29-.35-.44l-.33-.41c-.1-.13-.21-.24-.31-.37-.31-.38-.64-.75-1-1.13l-.08-.08c-.21-.26-.44-.5-.67-.76l-.39-.45c30.53-6.94,96.43-17.34,170.82,9.3a295.44,295.44,0,0,1,82.23,45.36A1.65,1.65,0,0,1,1627.5,894.84Z"/></g></g></svg>